<svg width="100" height="35" viewBox="0 0 100 35" fill="none" xmlns="http://www.w3.org/2000/svg">
<path d="M61.1624 0H63.1155C63.3983 0.0270062 63.6822 0.0432099 63.9661 0.0669753C63.4747 2.09136 62.8481 4.07685 62.2752 6.07747C61.5867 8.40324 60.8992 10.7279 60.1745 13.0418C60.9363 12.6562 61.7188 12.3148 62.5271 12.0491C63.4375 11.7531 64.3676 11.3934 65.338 11.4992C65.6064 11.4776 65.852 11.6721 65.9388 11.9335C66.2412 12.6832 66.0234 13.4966 65.9862 14.2722C66.747 14.0897 67.1579 13.3443 67.6833 12.8171C68.5019 12.0696 69.5352 11.5781 70.6098 11.4128C71.3634 11.3448 72.1985 11.3588 72.8406 11.8276C72.9954 12.0588 72.9438 12.4228 72.7786 12.6421C72.2491 12.8971 71.6194 12.8431 71.1136 13.165C70.9329 13.3421 70.9092 13.623 70.8266 13.8542C70.2051 16.0255 69.5476 18.1881 69.0077 20.3832C68.8673 20.8066 69.0211 21.3932 69.4805 21.5002C69.9688 21.5196 70.4746 21.5693 70.9546 21.4472C71.3541 21.0951 71.5234 20.5495 71.7391 20.0688C72.5402 17.7884 73.0181 15.4043 73.5621 13.0472C73.6271 12.7804 73.6736 12.5093 73.7087 12.237C73.5239 12.1031 73.334 11.954 73.2917 11.7077C73.8522 11.361 74.5417 11.2735 75.1683 11.4463C75.6184 11.6159 76.0076 11.9173 76.3885 12.2144C76.6734 12.4272 76.7694 12.8377 76.6971 13.1844C76.4225 15.0532 75.766 16.8324 75.4357 18.6883C75.3738 19.0113 75.766 18.9994 75.9715 18.9864C76.9263 18.8827 77.8223 18.4333 78.6038 17.8662C78.8969 17.6836 79.0001 17.3293 79.0982 17.0106C79.4977 15.5912 79.8094 14.148 80.1666 12.7167C80.2688 12.3019 80.3927 11.8924 80.564 11.5035C81.5561 11.3437 82.5863 11.3177 83.5752 11.5133C83.5659 12.0988 83.2542 12.6 83.1034 13.1477C83.858 13.0029 84.5135 12.5654 85.2155 12.2684C86.064 11.8978 86.9507 11.4625 87.8953 11.5802C88.3722 11.5997 88.8677 11.9259 88.9616 12.4423C89.1588 13.1866 88.7841 13.892 88.6674 14.6103C89.2228 14.5747 89.8091 14.337 90.1549 13.8639C90.4729 13.1531 90.5844 12.317 91.1026 11.7185C91.2636 11.5133 91.5289 11.4971 91.7611 11.4582C92.9266 11.2961 94.1044 11.2627 95.2792 11.2681C96.6067 11.2648 97.9393 11.2637 99.2596 11.4355C99.5239 11.4722 99.8315 11.5792 99.9079 11.8838C100.068 12.4261 100.001 13.0159 99.849 13.5528C99.4816 14.9193 99.1708 16.3052 98.7321 17.6502C98.665 17.7863 98.6392 18.0142 98.4596 18.0304C97.5099 18.1784 96.5468 18.1784 95.5888 18.1914C94.6484 18.2097 93.7049 18.1103 92.7687 18.2281C92.3661 19.0858 92.0636 20.004 91.947 20.9546C91.9212 21.3079 91.9242 21.8026 92.2979 21.9603C93.069 22.184 93.9103 22.0576 94.6185 21.6784C95.1367 21.4094 95.5228 20.9427 95.9078 20.5042C96.5478 20.4977 97.1899 20.4502 97.8289 20.5182C97.7164 21.1998 97.4294 21.835 97.0846 22.4194C96.937 22.6441 96.7873 22.885 96.5612 23.0287C96.0028 23.1454 95.4299 23.1238 94.8642 23.1443C93.0381 23.1573 91.2058 23.1832 89.3869 22.9931C88.973 22.9682 88.5291 22.7835 88.3567 22.359C88.1399 21.767 88.239 21.1113 88.3495 20.5052C88.7294 18.9799 89.357 17.5346 89.7214 16.0039C89.7658 15.8127 89.7833 15.616 89.8019 15.4205C89.1939 15.7403 88.6148 16.1411 88.0831 16.5818C87.6929 17.6426 87.4235 18.752 87.0767 19.8312C85.9164 23.6974 84.7633 27.5668 83.6051 31.4341C83.5401 31.6242 83.5411 31.8273 83.5473 32.0272C83.7321 32.0887 83.9251 32.1968 84.1244 32.1222C84.3824 32.0887 84.4836 31.8154 84.5961 31.6091C84.7747 31.271 84.9037 30.9069 85.0514 30.5537C85.5231 30.4403 86.0289 30.5332 86.5141 30.5137C86.4553 30.9804 86.223 31.3909 86.0227 31.8025C85.5985 32.6062 85.1556 33.4012 84.6529 34.1542C84.5104 34.3594 84.3742 34.5787 84.178 34.7321C83.7868 34.9201 83.345 34.9233 82.928 35H81.1927C80.5919 34.9438 79.988 34.9071 79.3965 34.7753C79.444 34.2049 79.6154 33.6583 79.7599 33.1096C81.2722 27.7105 83.0074 22.3849 84.5682 17.002C84.7004 16.4208 84.9595 15.8591 84.944 15.2509C84.5125 15.1267 84.0769 15.2769 83.664 15.4043C83.2232 15.5653 82.7772 15.736 82.3829 16.0028C82.2043 16.1162 82.1476 16.3409 82.0753 16.531C81.5106 18.4603 81.0812 20.4318 80.5021 22.3568C80.3989 22.5793 80.3648 22.9444 80.0716 22.9704C79.1839 23.1594 78.2383 23.1994 77.365 22.9164C77.4569 21.7432 77.9493 20.6651 78.2445 19.5417C77.2153 20.2071 76.0179 20.5701 74.8112 20.6176C74.4808 21.2787 74.4065 22.2153 73.6726 22.5426C72.8168 22.9639 71.8403 22.9034 70.9195 22.9736C69.6457 23.0849 68.3718 22.9628 67.097 22.939C66.8461 22.9261 66.5323 22.9282 66.394 22.6647C66.0554 22.0954 65.6817 21.4505 65.8015 20.7505C65.946 19.7231 66.2649 18.7347 66.5106 17.7312C66.7037 16.9404 66.9679 16.1594 67.0257 15.3406C66.5788 15.8062 66.0482 16.2177 65.3947 16.2653C64.5803 18.4431 64.1539 20.758 63.3467 22.939C62.1761 23.1076 60.9725 23.1184 59.806 22.9174C59.8235 22.1278 60.063 21.3716 60.2571 20.6154C60.6556 19.0631 61.1263 17.5313 61.5041 15.9736C61.6311 15.467 61.7673 14.956 61.7622 14.4289C61.1903 14.4731 60.6514 14.7022 60.1528 14.9841C59.8101 15.1894 59.4488 15.441 59.3157 15.8537C58.8036 17.298 58.4847 18.806 58.0645 20.2806C57.8354 21.0681 57.6568 21.8761 57.3296 22.6279C57.2397 22.912 56.9208 22.9239 56.6833 22.9585C55.8183 23.0568 54.9336 23.0914 54.0748 22.9207C54.1821 21.8275 54.7282 20.8369 54.816 19.7394C53.921 20.0969 53.0394 20.6241 52.0495 20.5798C51.8358 21.2571 51.6376 21.9927 51.1142 22.4864C50.6311 22.9326 49.955 22.9931 49.3418 23.0287C48.2342 23.0503 47.1286 22.9617 46.022 22.9563C45.9074 23.2156 45.8042 23.4802 45.7268 23.7546C44.9237 26.4444 44.2165 29.1634 43.4496 31.8651C43.1574 32.819 42.9148 33.7901 42.5577 34.7213C41.3757 34.8855 40.1721 34.8606 38.9829 34.8012C39.1171 33.6907 39.4918 32.6332 39.7695 31.5573C41.1228 26.7804 42.664 22.0651 44.0338 17.2937C42.3368 19.1117 40.5313 20.8488 38.4802 22.2239C37.9331 22.5588 37.3344 22.9682 36.6696 22.8548C36.3176 22.7792 35.8603 22.6074 35.8696 22.1515C35.8675 21.3003 36.1968 20.502 36.429 19.7005C35.5702 20.1455 34.6597 20.6079 33.677 20.5776C33.422 21.3856 33.1454 22.3309 32.3474 22.723C31.4917 23.1022 30.5317 23.0006 29.6263 22.9736C28.9347 22.9736 28.2431 22.9131 27.5525 22.9488C27.3667 23.1162 27.3254 23.3927 27.2335 23.6196C26.0887 27.2914 25.2061 31.0463 24.0995 34.7299C23.2304 34.8682 22.3467 34.825 21.4714 34.8444C21.1121 34.8261 20.7395 34.8779 20.3916 34.771C20.372 34.3886 20.5268 34.0256 20.6115 33.6605C21.5643 30.3085 22.6574 27.0029 23.6815 23.6747C23.8652 23.0211 24.082 22.3773 24.2368 21.714C21.6458 22.5761 19.0249 23.4068 16.3151 23.7417C14.1267 24.0258 11.8392 24.0052 9.74676 23.2005C8.68042 22.7889 7.71317 22.1213 6.876 21.323C5.30074 19.5665 4.81144 17.1068 4.47286 14.8026C4.3686 14.2852 4.42331 13.7062 4.1673 13.2373C3.71104 13.0094 3.17735 13.0688 2.68392 13.0526C1.78894 13.0645 0.894984 13.0181 0 13.0353V12.7934C0.139357 12.3397 0.29007 11.873 0.609043 11.5198C1.4039 11.5295 2.19875 11.496 2.9936 11.51C3.49839 11.4917 4.04446 11.5846 4.50279 11.3048C4.82486 11.1503 4.89402 10.7571 5.02719 10.4525C5.80862 8.54259 6.78206 6.69753 8.09099 5.12361C9.26468 3.64475 10.7636 2.43812 12.4616 1.69491C14.2568 0.897685 16.2429 0.751852 18.1701 0.83179C21.3299 1.1213 24.3256 2.5537 26.8351 4.5446C26.4676 5.05556 25.9814 5.45309 25.4879 5.82037C25.2784 5.95864 25.0575 6.1196 24.8005 6.12284C24.625 6.07855 24.4794 5.95972 24.3256 5.8679C23.4977 5.30509 22.578 4.91404 21.7387 4.37068C19.766 3.15864 17.3309 2.61852 15.0991 3.28503C13.8501 3.62531 12.8632 4.58349 12.0601 5.59784C10.938 7.05833 10.0833 8.74676 9.57333 10.5443C9.4123 10.9569 9.69824 11.483 10.1256 11.5079C15.0372 11.5208 19.9498 11.4927 24.8614 11.5219C24.5723 12.0415 24.274 12.559 23.9261 13.0397C19.3201 13.0289 14.7151 13.0386 10.1091 13.0343C9.68895 12.9954 9.40301 13.408 9.22443 13.7515C8.88171 14.6525 9.04894 15.6971 9.50108 16.5235C10.4673 18.4679 12.12 20.0397 14.0947 20.7904C16.6073 21.7735 19.4264 21.6449 21.9679 20.8434C22.9114 20.5647 23.8126 20.1466 24.6724 19.6573C24.9863 19.4963 24.9563 19.0772 25.0585 18.779C25.5798 16.8076 26.1765 14.8566 26.8309 12.9295C27.0106 12.4855 27.1117 11.9907 27.3977 11.6051C27.6671 11.4571 27.9871 11.5046 28.2813 11.4755C29.1071 11.4733 29.9422 11.4603 30.7567 11.6256C30.7629 12.2133 30.5368 12.762 30.3964 13.3216C29.6852 15.844 28.8666 18.3329 28.1863 20.8661C28.111 21.1372 28.0635 21.417 28.0449 21.7C28.5755 21.7583 29.1505 21.8836 29.6563 21.6427C29.8844 21.3014 29.9608 20.879 30.0971 20.4934C30.8764 17.8219 31.5288 15.1116 32.2091 12.412C32.335 11.9918 32.0316 11.6559 31.7404 11.4225C32.4052 11.0088 33.2156 11.0542 33.9619 11.0336C34.2871 11.0542 34.6649 10.9569 34.9405 11.1935C35.3224 11.4938 35.5454 12.0242 35.4257 12.5211C35.116 14.4721 34.5534 16.3668 34.1157 18.2886C34.0889 18.4431 34.0806 18.5997 34.0724 18.7574C34.3624 18.8568 34.667 18.9961 34.9766 18.9054C35.7126 18.7466 36.2339 18.1244 36.6902 17.5454C37.0722 17.096 37.1083 16.4684 37.2745 15.9174C37.6306 14.6125 37.9599 13.2957 38.4399 12.0329C38.5401 11.8406 38.5979 11.5306 38.8528 11.5176C39.7922 11.3361 40.7564 11.3804 41.706 11.4215C41.8454 11.4636 42.0653 11.416 42.1375 11.5802C42.0766 12.2651 41.8547 12.9208 41.6782 13.5798C41.3551 14.6924 41.0361 15.8073 40.7378 16.9286C40.6418 17.2753 40.5881 17.634 40.5736 17.9958C40.7915 17.8921 40.9989 17.7657 41.1889 17.6134C42.2604 16.76 43.2834 15.8418 44.3229 14.9452C44.5046 14.781 44.7203 14.6233 44.7977 14.3716C45.0816 13.5647 45.2509 12.7177 45.5688 11.9227C45.6349 11.7639 45.7226 11.5867 45.9023 11.5489C46.4514 11.3998 47.0243 11.402 47.589 11.3955C48.1671 11.3998 48.7544 11.3707 49.3212 11.5219C49.2757 11.8222 49.2179 12.1193 49.1333 12.4099C48.4324 14.8912 47.6117 17.3326 46.8747 19.802C46.6992 20.4264 46.4824 21.0432 46.4153 21.6935C46.9583 21.7778 47.524 21.8458 48.0566 21.6622C48.4251 20.8315 48.614 19.9316 48.8845 19.0642C49.4677 16.8551 50.0427 14.6417 50.5785 12.4196C50.724 12.0037 50.3968 11.6807 50.1356 11.4258C50.5341 11.1341 51.0306 11.0963 51.5003 11.0563C52.0113 11.0358 52.5284 11.0045 53.0384 11.0563C53.5958 11.2497 53.9519 11.9346 53.8116 12.5319C53.5401 14.1264 53.1251 15.6884 52.7401 17.2548C52.6224 17.7485 52.4551 18.2367 52.4459 18.7509C52.8133 18.9065 53.2283 19.0199 53.6082 18.8319C54.3659 18.5003 54.9367 17.8046 55.3527 17.0841C56.0537 15.0889 56.6627 13.0591 57.3141 11.0444C58.4372 7.41589 59.6202 3.80571 60.6628 0.151235C60.8001 0.0324074 60.9952 0.0442901 61.1624 0V0ZM94.0735 13.6122C93.8061 14.6028 93.2249 15.5491 93.3715 16.6164C93.4097 16.7719 93.4438 17.0247 93.644 17.0204C94.1416 17.0765 94.6422 17.0258 95.1419 17.0182C95.4288 16.2782 95.6146 15.5015 95.8149 14.7335C95.9057 14.3025 96.0657 13.8844 96.0771 13.4394C95.6621 13.246 95.1976 13.3227 94.7579 13.2946C94.5101 13.3151 94.1178 13.2611 94.0735 13.6122Z" fill="#010101"/>
<path d="M40.6365 2.15304C41.9954 1.62173 43.6966 2.53117 43.9344 3.99548C44.3035 5.45337 43.0609 7.07086 41.5474 6.99052C40.2024 7.12121 38.9609 5.8797 39.0025 4.54286C38.9524 3.50059 39.6617 2.49475 40.6365 2.15304Z" fill="#010101"/>
</svg>
