<svg width="100" height="43" viewBox="0 0 100 43" fill="none" xmlns="http://www.w3.org/2000/svg">
<path d="M84.9317 40.3204H85.3723C85.5904 40.3204 85.7468 40.2918 85.8415 40.238C85.9336 40.1756 85.9779 40.0854 85.9779 39.9535C85.9779 39.8364 85.9353 39.7488 85.8415 39.6863C85.7511 39.6282 85.6086 39.5961 85.4279 39.5961H84.9317V40.3204ZM84.3982 41.8315V39.1806H85.6538C85.9666 39.1806 86.1934 39.2491 86.3359 39.3966C86.4758 39.5406 86.5488 39.7184 86.5488 39.9275C86.5488 40.1331 86.4897 40.2961 86.3698 40.4211C86.2508 40.5434 86.0726 40.6284 85.8319 40.6692C85.9414 40.7099 86.0266 40.768 86.09 40.8409C86.1543 40.9103 86.2569 41.0647 86.3968 41.2989L86.7061 41.8315H86.0396L85.8224 41.4065C85.6886 41.1497 85.5678 40.9754 85.467 40.8817C85.367 40.7889 85.2376 40.7412 85.0681 40.7412H84.9317V41.8315H84.3982ZM85.5608 38.4892C84.9499 38.4892 84.4477 38.6879 84.0662 39.0982C83.6865 39.4981 83.4962 39.9683 83.4962 40.4991C83.4962 41.0508 83.69 41.5271 84.0862 41.9183C84.4833 42.3086 84.9543 42.5064 85.5078 42.5064C86.0587 42.5064 86.5323 42.3086 86.9286 41.9183C87.3205 41.5271 87.5203 41.0508 87.5203 40.4991C87.5203 40.1183 87.4213 39.7705 87.2214 39.4521C87.0242 39.1294 86.7669 38.8865 86.4559 38.7261C86.1465 38.569 85.8441 38.4892 85.5608 38.4892ZM85.4348 38C86.1813 38 86.7948 38.2472 87.2762 38.7425C87.7593 39.237 88 39.8251 88 40.4991C88 41.1827 87.755 41.7717 87.2675 42.2609C86.7756 42.7528 86.1856 43 85.5009 43C84.8048 43 84.2183 42.7528 83.7291 42.2627C83.2398 41.7769 83 41.187 83 40.4991C83 40.0125 83.1277 39.5675 83.3867 39.1641C83.6422 38.759 83.9654 38.4624 84.3521 38.2785C84.7405 38.0902 85.0985 38 85.4348 38Z" fill="black"/>
<path d="M15 0L30 0.000896454V18L15 0Z" fill="black"/>
<path d="M24.9924 12L25 30L19.6326 25.9367L16.0109 25.9402L16 16.382H19.6267L24.9924 12Z" fill="black"/>
<path d="M30 24V42.9888L15 43L30 24Z" fill="black"/>
<path d="M33 21V43L49 42.9876L33 21Z" fill="black"/>
<path d="M45 0.00897026L60.9852 0L61 21L45 0.00897026Z" fill="black"/>
<path d="M65 0.010601L65.0325 43L81 42.9867L80.9728 0L65 0.010601Z" fill="black"/>
<path d="M83 0.00351334L83.0184 24.9959C83.0184 24.9959 83.4844 25.0038 87.92 24.9977C95.8101 24.9959 100.008 19.3871 100 12.5418C99.9939 5.68951 95.9614 -0.00526237 87.906 3.8147e-06C83.5762 0.00614738 83 0.00351334 83 0.00351334Z" fill="black"/>
<path d="M50.5116 43L53.1831 42.9973C63.0511 42.9894 64.5547 31.7304 61.738 27.5573C59.9433 24.9201 45.5942 6.16419 43.9865 3.95304C42.3177 1.65792 44.4385 0 44.4385 0L41.8203 0.00706863C31.9462 0.0123711 30.4434 11.3412 33.2654 15.5117C35.054 18.1523 49.2256 37.047 51.0133 39.123C53.0275 41.4578 50.5116 43 50.5116 43Z" fill="black"/>
<path d="M15 42.9876V0L0 0.0141373L0.0283132 43L15 42.9876Z" fill="black"/>
</svg>
