<svg width="100" height="67" viewBox="0 0 100 67" fill="none" xmlns="http://www.w3.org/2000/svg">
<path d="M10.0326 31.5535C10.5554 32.2031 11.8318 33.4985 10.7845 34.501C9.68349 35.5472 5.9221 37.9343 4.01723 37.8852C2.03001 37.9343 -0.349279 35.327 0.0427943 32.9727C0.350724 31.5899 2.02822 29.6795 2.83564 28.8262C3.64127 27.9074 12.9723 18.219 18.626 14.8512C20.1549 13.9197 23.6477 13.1682 24.6413 13.6504C25.6618 14.1253 27.205 15.5571 27.2194 18.8903C27.2042 21.1464 27.2042 23.4025 27.2194 25.6586C27.205 26.541 27.5416 27.3598 28.7232 26.4228C29.3552 25.9279 30.8322 25.8587 31.8383 25.9861C32.8444 26.1317 33.4478 26.8831 32.5902 27.5144C31.704 28.1112 28.1467 31.1824 26.8971 32.4269C27.0045 39.8465 23.2431 60.1094 22.6004 62.4474C22.0973 64.5125 20.6938 65.5004 18.9482 66.159C17.2027 66.7267 14.1807 66.865 14.6515 64.3032C15.1206 61.8142 19.6858 43.5981 20.2372 38.2108C20.3572 37.6614 19.9544 37.4558 19.4853 37.9925C19.0145 38.5474 16.6638 40.6616 14.6515 40.8308C12.6375 41.0728 11.182 39.6045 10.8919 39.1933C10.7577 38.9568 10.6234 38.411 11.2142 38.1017C11.8318 37.8651 17.9403 34.1808 21.8485 30.7876C22.0347 28.2458 22.3498 21.8997 22.3856 19.9802C22.5055 18.5574 21.3651 19.3743 20.7743 19.871C20.1567 20.3295 12.2347 27.085 9.81777 29.9142C9.27889 30.4983 9.54743 31.2479 10.0326 31.5535Z" fill="black"/>
<path d="M36.0131 31.3757C36.462 31.644 37.4105 31.3027 37.8595 30.7188C38.3609 30.0728 39.447 28.9761 39.2714 28.4195C39.1773 27.8812 38.2939 27.4013 36.8819 27.5436C35.4428 27.6768 32.9303 27.883 29.4963 32.7991C28.517 34.7243 29.0619 36.8447 30.4739 36.8502C31.2323 36.8447 31.8442 37.7352 31.3427 38.4907C30.7581 39.2389 28.9261 42.3885 30.7997 44.5144C32.7257 46.6312 35.8501 44.9889 37.2078 42.8721C38.5654 40.7462 40.5331 37.1203 41.1178 36.1932C41.4165 35.5473 41.8926 35.8885 41.7695 36.4122C41.7568 36.8447 42.1279 39.186 42.5298 40.0254C43.0131 41.0874 44.1662 41.1221 44.4848 39.9141C44.912 38.7608 46.8815 33.1148 47.8517 32.0308C48.1359 31.7462 48.4093 31.8483 48.2862 32.2498C48.2735 32.7389 48.1034 35.3739 48.8292 36.5199C49.528 37.7681 50.5797 38.8283 52.0876 37.5053C53.5665 36.0911 54.01 34.5181 54.3684 33.6732C54.5187 33.2863 54.9984 33.1914 55.1287 33.5637C55.469 35.1312 59.8805 37.2535 61.6454 30.9359C61.7124 30.3429 62.3912 30.1367 62.6229 30.717C62.7985 31.3684 63.4104 32.1239 64.4693 32.0308C65.4468 31.9852 67.6879 30.3429 68.5966 27.9797C68.841 27.4688 69.4528 27.675 69.7913 27.9797C70.1316 28.2224 71.4205 29.0436 72.6152 28.5272C73.8643 28.0856 75.765 26.5126 77.3941 23.4907C79.0233 20.4888 81.4671 15.425 82.0644 13.9651C82.4174 13.029 83.0963 13.372 82.9333 14.0746C82.622 15.0162 81.1956 20.5235 83.4764 22.3976C85.8134 24.2881 89.6148 21.0381 90.7534 19.9888C91.9228 18.8483 98.0992 13.3739 99.6596 11.7771C100.474 10.9779 99.7283 9.13116 98.4648 10.1348C97.147 11.1841 91.2421 16.3848 89.8845 17.3611C88.5268 18.4377 86.7999 20.0509 85.7573 19.2224C85.0314 18.6093 85.3373 16.6585 85.7573 15.6093C86.1519 14.6056 87.238 11.7315 87.6037 10.9012C88.0526 10.0892 87.5765 8.78809 86.8434 8.60196C86.0831 8.51437 84.997 8.78992 84.5625 9.58736C84.2856 9.987 83.6393 10.0892 83.6936 9.36838C83.7081 8.58371 83.8439 6.56546 82.7161 5.64575C81.5359 4.6494 79.9682 5.16765 78.9147 6.74247C77.6657 8.61838 76.9868 11.9724 79.0233 12.4359C79.4994 12.5874 79.8053 13.0326 79.4578 13.7498C79.0577 14.4706 76.1035 20.8356 74.7875 22.8374C73.5257 24.8045 72.4396 25.6257 71.8549 25.1367C71.3535 24.6659 71.9979 22.2042 75.2219 19.0053C75.431 18.8405 75.57 18.6015 75.6103 18.337C75.6507 18.0725 75.5895 17.8025 75.4391 17.5819C75.2219 17.1403 74.0688 17.0381 73.2669 17.3629C72.4378 17.7899 71.9979 18.0637 71.5291 18.4578C70.9788 18.748 70.6403 18.748 70.443 18.4578C70.233 18.1312 69.9615 17.4469 72.6152 15.8301C73.0841 15.5326 73.4914 15.3958 74.353 15.5016C75.2563 15.5326 75.5278 15.1549 75.765 14.8447C76.0021 14.5399 76.6809 13.6166 76.9597 13.0928C77.1552 12.5892 76.9524 12.1111 76.1994 11.9979C75.3921 11.9724 72.8451 11.9724 69.6809 14.5162C68.0934 15.737 67.1086 17.5162 67.2914 18.4578C67.3801 19.4998 67.4815 20.4925 69.5723 20.6476C70.2638 20.664 70.2312 21.3812 69.8981 21.7425C69.6212 22.2042 68.9079 22.8538 68.4862 23.7133C68.2617 24.4286 66.8099 26.56 66.2053 27.5454C65.5138 28.7389 64.2919 28.9451 64.3589 27.217C64.4603 26.3429 64.4947 24.3246 64.4675 23.4943C64.9708 21.7918 68.7034 5.77896 69.0292 3.3483C69.3152 2.01618 68.5676 0.578222 67.8345 0.50158C67.0742 0.441361 63.8828 2.0837 62.8384 8.71327C61.7106 15.3611 61.3721 16.9341 61.4264 18.6768C58.7238 18.5071 56.6203 20.2863 55.67 23.1659C54.7196 26.0345 53.7693 29.456 53.1719 31.2662C52.5474 33.1513 52.0043 34.2462 51.3255 34.1148C50.6467 33.9724 50.9852 31.1002 51.2169 29.6257C51.5282 28.2243 51.9355 25.8976 52.1944 24.4797C52.4804 23.0253 51.8016 22.7516 51.2169 22.8374C50.5779 22.8885 47.0498 24.6659 46.0035 29.0783C45.8261 30.0728 44.74 30.5509 44.9174 29.2972C45.0133 27.9505 45.0803 27.0618 44.0485 27.1075C43.5145 27.0618 42.1623 27.8137 41.3332 29.8447C40.5331 31.7827 38.5636 35.8192 37.206 38.3849C35.8483 41.0217 34.2861 42.7334 33.5132 41.998C32.6569 41.3648 34.6264 37.9432 35.251 37.071C36.0511 36.5035 37.5463 35.3411 37.0974 34.5527C36.7317 33.6987 34.5595 34.0418 33.839 34.6622C33.2 35.3429 32.2497 35.7535 31.884 35.3192C31.4351 34.9305 32.3854 33.5619 33.1873 32.6914C34.0164 31.7827 34.764 30.8228 36.0131 31.3757Z" fill="black"/>
<path d="M60.5707 22.5323C59.5688 22.1933 57.8788 24.6019 57.4647 26.0632C57.0021 27.5441 56.6264 30.0865 57.6651 30.4523C58.6286 30.8894 59.8811 28.2131 60.3703 26.9214C60.883 25.6725 61.384 23.196 60.5707 22.5323Z" fill="white"/>
<path d="M90.0015 5.05738C89.9441 3.01093 91.5599 1.54399 93.4434 1.5C95.3594 1.54208 96.9751 3.01093 97 5.05738C96.9751 7.01393 95.3613 8.48279 93.4434 8.5C91.5599 8.48279 89.9441 7.01393 90.0015 5.05738Z" fill="black"/>
<path d="M93.4501 7.49999C94.1259 7.49792 94.7734 7.18739 95.2512 6.63626C95.729 6.08513 95.9982 5.33823 96 4.55882C95.9694 2.81961 94.8679 1.54706 93.4501 1.5C92.0613 1.54706 90.9598 2.81961 91.0023 4.55882C90.988 4.93953 91.0408 5.31962 91.1575 5.67613C91.2742 6.03264 91.4523 6.35817 91.6811 6.63306C91.9098 6.90796 92.1846 7.1265 92.4886 7.27551C92.7927 7.42451 93.1198 7.50088 93.4501 7.49999Z" fill="white"/>
<path d="M92.5769 6.5H92V2.5H93.5C94.4308 2.51905 94.9019 2.86762 94.8846 3.64286C94.9 4.36667 94.4481 4.67714 93.8462 4.78571L95 6.5H94.3077L93.2692 4.78571H92.5769V6.5Z" fill="black"/>
<path d="M93.8 4.48573C94.4178 4.52978 94.9511 4.49878 95 3.99638C94.9511 3.5527 94.4267 3.47277 93.9333 3.50702H93V4.48573H93.8Z" fill="white"/>
</svg>
