<svg width="100" height="65" viewBox="0 0 100 65" fill="none" xmlns="http://www.w3.org/2000/svg">
<path d="M23.4998 16.5C25.4326 16.5 27 14.9324 27 12.9998C27 11.0672 25.4326 9.5 23.4998 9.5C21.567 9.5 20 11.0676 20 12.9998C20 14.9321 21.567 16.5 23.4998 16.5Z" fill="black"/>
<path d="M18.0801 19.944C18.0801 19.944 18.0801 15.2599 18.0801 12.8598C18.0801 10.4533 15.74 8.26435 13.9297 8.81508C12.1302 9.3723 4.56981 11.7208 4.25966 11.8617C3.95051 12.008 0 13.5572 0 17.9539L0.0596835 46.5225C0.0596835 46.5225 0.230016 49.3962 3.16993 49.3386C3.16993 49.3386 4.02998 49.3386 5.40974 48.5771C5.40974 48.5771 8.81002 46.6828 9.04004 46.5805C9.25966 46.4847 11.1102 45.8828 11.1699 48.4554V64.5L16.7503 62.6821C16.7503 62.6821 16.7503 48.9164 16.7503 48.4554C16.7503 47.4893 17.4407 42.7079 19.8602 40.7311C20.0101 40.6029 21.1806 39.8353 22.22 41.2559C23.2698 42.6769 24.1802 42.8941 24.1802 42.8941C24.1802 42.8941 25.3098 43.3995 26.3107 41.6655C26.3704 41.5441 28.1307 38.5807 28.2105 38.4463C28.2903 38.312 28.5505 37.915 29.3002 37.9795C29.3002 37.9795 31.1508 37.8577 30.86 40.4944C30.86 40.4944 39.4203 37.8513 40.1301 37.4478C40.2397 37.4032 43.5099 36.0722 45.4802 33C45.4802 33 46.07 32.1168 46.8096 32.1809C46.9397 32.1809 48.7601 32.2962 48.2403 34.7538C48.2403 34.7538 56.54 32.1748 57.0001 31.9446C57.9802 31.535 60.57 30.4404 60.5107 27.3812C60.5405 26.4724 60.3004 24.8856 59.0102 23.7463C58.9405 23.6757 53.3 19.4516 53.2501 19.4137C52.7599 18.9912 52.5101 18.0309 53.3098 17.0137C53.3098 17.0137 53.9398 16.0793 54.8696 16.137C54.8696 16.137 55.57 16.1049 56.6504 17.545C56.7898 17.6858 57.5899 18.774 58.1502 18.8889C58.1502 18.8889 58.6099 19.0424 59.1802 18.4794C60.5804 17.2442 61.3104 17.1931 61.3104 17.1931C61.3104 17.1931 63.3302 16.6045 63.3302 18.9466C63.3302 18.9466 63.3302 23.4077 63.3302 23.868C63.3302 24.9436 64.72 28.2391 67.8802 28.0795C67.8802 28.0795 68.97 27.9643 70.0104 27.67L73.4003 26.5631C73.4003 26.5631 77.67 25.2577 79.1601 22.461C79.1601 22.461 79.8699 21.0591 80.8899 21.0591C80.8899 21.0591 82.67 20.8228 82.5 23.5748L87.3401 21.9362V10.0499C87.3401 10.0499 87.2006 8.64219 88.8301 8.64219C90.4403 8.64219 90.39 9.92815 90.39 9.92815C90.39 9.92815 90.39 34.0108 90.39 34.5226C90.39 35.2139 91.1001 37.3639 93.4398 37.3319C93.4398 37.3319 100 37.2746 100 31.5913C100 31.1691 100 29.4279 100 29.4279L98.3299 30.0107V32.0646C98.3299 32.0646 98.4405 33.4474 96.8901 33.5238C96.7499 33.5559 95.23 33.4982 95.28 32.0005V1.90959C95.28 1.90959 95.1603 0.501546 93.7795 0.501546C93.7795 0.501546 92.5198 0.386284 91.5397 2.14625C90.5596 3.89973 90.2099 5.24366 88.8902 5.24366C88.8902 5.24366 87.3199 5.43565 87.3397 4.01465V2.49169L82.38 4.1364C82.38 4.1364 82.38 9.71706 82.38 9.92815C82.38 11.3682 81.3201 18.5104 79.4501 18.5356C79.3197 18.5551 77.56 18.8047 77.4896 17.0127C77.4896 17.0127 77.4896 10.8881 77.4896 10.2801C77.5396 9.37162 76.8401 6.6575 74.6097 6.94599L72.6003 7.35555C72.6003 7.35555 72.6003 21.4796 72.6003 21.9345C72.6003 22.3823 72.4397 24.5327 70.0597 24.6282C69.8498 24.6606 67.5298 24.5644 67.5298 22.2861V12.8022C67.5298 12.8022 67.4202 11.0999 69.0897 10.9846L69.1396 8.52693C69.1396 8.52693 64.0793 9.69831 61.7198 14.0312C61.4401 14.3381 60.85 14.6133 60.4496 14.6133C60.2099 14.6133 59.0702 14.5427 59.0099 13.3843C59.0099 13.1091 59.0099 11.8037 59.0099 11.8037L50.6602 14.613C50.6602 14.613 47.38 15.6694 47.38 19.0676C47.38 19.0676 47.38 21.4097 48.8201 22.517L54.6399 26.9713C54.6399 26.9713 55.63 27.6884 55.1499 28.9045C55.0892 29.1091 54.4095 30.5106 53.0194 30.5427C52.7491 30.5744 51.8693 30.5427 51.3493 29.1923C51.3493 29.1923 50.8896 27.4384 49.3995 27.9633C49.3995 27.9633 46.5994 28.9617 46.3999 29.0194C46.2104 29.077 44.5598 29.3713 44.5598 27.3808C44.5598 27.3808 44.5598 21.3074 44.5598 20.8214C44.5598 20.3345 43.9696 17.5573 41.6799 17.6599C41.6799 17.6599 40.3594 17.7752 39.2104 18.3061V21.1734C39.2104 21.1734 40.7601 20.9367 40.7601 22.9848V32.8851C40.7601 32.8851 40.8299 35.3554 38.29 35.4004C36.1595 35.3748 35.8101 33.3076 35.8101 33.058C35.7896 31.6568 35.8698 1.50071 35.8698 1.50071L30.8004 3.49052L30.86 25.0957C30.86 25.0957 30.5502 32.11 28.6098 34.8173C28.0506 35.5917 26.08 35.5917 25.91 33.8761V22.7536L20.9603 24.3345C20.9603 24.3345 20.9603 28.0847 20.9603 28.84C20.9603 29.5953 20.2699 38.5418 17.7401 38.4139C17.4199 38.4207 16.7399 38.0617 16.7295 36.5261L16.76 25.6273L11.9199 27.3808C11.9199 27.3808 11.87 33.3707 11.8596 33.7039C11.7097 35.6241 11.9793 44.3018 6.3298 44.3018C6.3298 44.3018 4.94971 44.3595 4.94971 42.6633V18.4211C4.94971 18.4211 5.10964 15.682 7.19957 14.7282C7.19957 14.7282 9.33007 13.9538 9.78977 13.7939C10.2397 13.6339 11.9796 13.7939 11.9796 15.7267V21.8769L18.0801 19.944Z" fill="black"/>
<path d="M96 1.99692C96 1.09008 96.7074 0.5 97.5005 0.5C98.2929 0.5 99 1.09008 99 1.99692C99 2.91576 98.2929 3.5 97.5005 3.5C96.7074 3.5 96 2.91576 96 1.99692ZM97.5005 0.816438C96.8772 0.816438 96.3866 1.30958 96.3866 1.99724C96.3866 2.69075 96.8776 3.18324 97.5005 3.18324C98.1132 3.18324 98.6137 2.69042 98.6137 1.99724C98.6137 1.30925 98.1132 0.816438 97.5005 0.816438ZM97.2357 2.83665H96.9149V1.15719H97.5381C97.9437 1.15719 98.1699 1.29077 98.1699 1.65584C98.1699 1.95996 97.9905 2.08154 97.7738 2.10618L98.1699 2.83665H97.8114L97.4435 2.1185H97.2357V2.83665ZM97.2357 1.86269H97.5191C97.7548 1.86269 97.8399 1.78423 97.8399 1.62569C97.8399 1.46747 97.7365 1.41884 97.5008 1.41884H97.236V1.86269H97.2357Z" fill="black"/>
</svg>
