<svg width="100" height="29" viewBox="0 0 100 29" fill="none" xmlns="http://www.w3.org/2000/svg">
<path d="M37.5462 6.04314C37.5462 6.04314 35.4345 5.63399 35.4226 2.87604C35.4105 0.118626 38.1747 0.021204 38.1433 0.00848961C38.1116 -0.00396919 38.7702 -0.00964928 38.9967 0.0420551C39.5846 0.174648 39.8073 0.208204 39.8073 0.208204L40.4167 0.318333L40.8683 0.384632L41.4047 0.461763L41.9209 0.507231L42.5717 0.594362L43.0885 0.627634L43.9499 0.68392L44.6443 0.72747L45.2752 0.750219C45.2752 0.750219 48.9562 0.773211 51.196 0.21876C53.8654 -0.44367 53.1262 2.83112 51.827 3.28599C51.8173 3.28802 51.7308 16.7521 51.7308 16.7521L51.8589 16.9202L52.0045 17.053L52.1625 17.1865L52.3207 17.3293C52.3953 17.4065 52.7324 17.7382 52.7109 18.5254C52.6895 19.3126 52.2258 19.9771 51.6894 19.9439C51.1536 19.9103 50.1753 19.6984 50.1753 19.6984L49.86 19.6551L49.5248 19.6446H49.2288L48.925 19.6551C48.925 19.6551 47.7493 19.6835 47.2449 19.8635C47.0961 19.9171 46.8726 19.9414 46.8726 19.9414L46.5908 19.9311L46.3897 19.8873C46.3897 19.8873 45.6421 19.601 45.6325 18.4818C45.6225 17.3623 47.0005 16.8309 47.0005 16.8309V14.7375H43.8028V16.9199C43.8028 16.9199 44.8992 17.2625 44.8242 18.3589C44.749 19.4557 44.1557 19.9181 43.8557 19.9747C43.5505 20.0304 43.5089 19.9767 43.5089 19.9767L43.1401 19.8647L42.73 19.7773L42.4049 19.711C42.4049 19.711 40.9929 19.4036 39.8495 19.688L39.5656 19.744L39.3227 19.7876L39.1532 19.8211L38.9244 19.8541H38.7238L38.5027 19.8314C38.5027 19.8314 37.7356 19.744 37.7356 18.6478C37.7356 17.5511 39.0708 16.8513 39.0708 16.841C39.0901 16.3907 39.0823 14.4944 39.0823 14.4944L38.7546 14.4489C38.7546 14.4489 34.1726 14.5255 34.0028 9.73072C33.8884 6.4957 37.3155 6.12416 37.3254 6.122C37.4098 6.09951 37.5462 6.04326 37.5462 6.04326V6.04314ZM47.0322 4.74763C47.0322 4.74763 43.6521 4.92 43.6762 10.861C43.6762 10.8732 47.0558 10.861 47.0558 10.861L47.0322 4.74763H47.0322Z" fill="black"/>
<path d="M23.6814 0.995358C25.1429 1.01288 26.9991 0.509369 26.9991 0.509369L27.8682 0.337687L28.311 0.276638L28.8669 0.23093C28.8669 0.23093 34.3838 -0.311758 34.3738 6.24172C34.3697 9.32091 30.2638 12.2522 30.2638 12.2522C30.2638 12.2522 30.0382 13.0512 30.8113 15.9825C31.5841 18.9141 32.8925 20.7292 32.8925 20.7292C32.8925 20.7292 33.7278 19.5001 35.8676 19.5132C36.6203 19.5178 40.2154 20.3535 39.9898 24.5164C39.7423 29.0654 35.7848 28.9999 35.775 28.9999C35.2696 28.9655 33.5787 29.3129 31.1332 26.7742C28.6652 24.2144 28.5243 22.9182 27.6429 21.2157C26.7613 19.5132 25.8191 15.3922 25.8191 15.3922L25.7648 15.125L25.6461 15.0902L25.5492 15.1008L25.4426 15.1143L24.5408 15.4724C24.5408 15.4724 24.4664 17.581 24.5408 17.6026C24.6155 17.6242 25.7648 17.9366 25.7547 19.0401C25.7425 20.3603 24.5731 20.3253 24.5731 20.3253C24.5731 20.3253 23.8326 20.3124 23.0052 20.0928C22.1778 19.8735 20.934 19.9781 20.934 19.9781C20.37 20.1742 19.6528 20.2418 19.5049 20.2538C19.377 20.2484 18.3813 20.1709 18.4096 19.1573C18.4419 18.0106 20 17.4523 20 17.4523L19.9897 11.3487C19.9897 11.3487 20 5.34909 19.9897 3.31255C17.8962 2.826 18.0274 1.345 18.0051 1.31023C17.9831 1.27544 17.9831 -0.0448246 19.0882 0.00117302H19.2269L19.3227 0.0142937C19.7926 0.130112 20.7923 0.963291 23.6814 0.995327L23.6814 0.995358ZM19.3227 0.0142612L19.1522 0.00361252L19.3227 0.0142612ZM24.3899 4.13555V10.2498C24.3899 10.2498 25.5715 10.4453 27.2143 8.98651C27.7675 8.49558 28.3091 7.75934 28.3957 6.27642C28.4823 4.79295 27.7939 4.14622 27.0753 3.7399C26.3565 3.33412 25.4328 3.6249 25.4328 3.6249L25.2699 3.6813L25.1407 3.71635L24.992 3.76401L24.8432 3.8226L24.7121 3.89216L24.5954 3.94828L24.3899 4.13557V4.13555Z" fill="black"/>
<path d="M9.06507 0.00224304C15.5391 0.15774 18.04 6.44751 17.9995 10.8535C17.9592 15.26 14.518 21.0712 8.94166 20.9993C3.36528 20.9281 -0.0738384 15.1542 0.00120352 10.515C0.0767685 5.87601 3.42751 -0.133007 9.06507 0.00224304ZM9.00886 3.47338C6.13504 3.45257 6.23518 12.0991 9.05383 12.1879C11.7501 12.2719 12.181 3.49741 9.00886 3.47338Z" fill="black"/>
<path d="M88.3551 17.2656C88.3551 17.2656 87.0402 17.6327 87.0006 18.8557C86.9748 19.6512 87.7722 19.9117 87.7722 19.9117L87.9304 19.9699L88.1837 20L88.3527 19.9907L88.5841 19.9802L88.7549 19.9434L88.9602 19.9074L89.1426 19.8834L89.4595 19.8371L89.8237 19.8167L90.273 19.7977L90.7814 19.78L91.2792 19.7622L92.2969 19.7824L92.9033 19.7814L93.5947 19.7946L94.4069 19.8231L95.2185 19.8789L95.8967 19.9072L96.6479 19.949L97.193 19.9847L97.6063 19.9675L97.7751 19.9435C97.7751 19.9435 98.1652 19.9807 98.534 18.8222C98.5899 18.6482 99.8006 15.3608 99.8006 15.3608C99.8006 15.3608 100.113 14.0833 98.975 13.8984C97.8369 13.7136 97.3163 15.3801 96.7004 15.8813C96.6544 15.9183 95.5801 17.143 94.7271 17.1414C93.8656 17.1394 92.4763 17.1173 92.4763 17.1173L92.5313 12.0077L93.9951 11.9923C93.9951 11.9923 94.54 12.9086 95.364 12.897C96.1881 12.8859 96.9462 12.5204 96.9937 11.7929C97.0209 11.388 97.0413 8.74067 97.0413 8.74067C97.0413 8.74067 97.0723 7.5168 95.5462 7.42768C94.7723 7.38299 94.3262 7.80558 94.1667 8.04887C94.1592 8.05946 92.4812 8.01661 92.4812 8.01661L92.4762 4.84852L94.7739 4.84554C94.7739 4.84554 95.6499 4.68715 97.0573 6.14638C97.3352 6.43251 97.9715 7.56592 99.0254 7.50616C100.08 7.44666 99.9985 6.59407 99.9985 6.59407L99.8853 6.06597L99.7336 5.61774L99.4441 4.73395L99.3074 4.29814L99.1342 3.72693L98.9726 3.17054L98.8095 2.66703L98.6839 2.23148L98.5676 1.91891C98.5676 1.91891 98.4539 0.943356 97.3321 1.06923C97.2964 1.0727 96.5184 1.13561 96.5184 1.13561L95.8629 1.15071L94.7837 1.20967L93.946 1.23348L91.3885 1.18377L90.4802 1.12613L89.7407 1.04415L88.8697 1L88.286 1.02855C88.286 1.02855 87.3772 1.10761 87.3839 2.1342C87.3849 2.41743 88.05 2.91248 88.4085 3.35543C88.4478 3.40383 88.355 17.2656 88.355 17.2656" fill="black"/>
<path d="M80.4768 21.1435C80.4768 21.1435 79.532 20.5791 78.4789 20.5719C77.4261 20.565 74.6686 21.7324 74.64 24.9825C74.6109 28.2326 76.2265 28.9082 78.6105 28.9932C80.9949 29.0797 82.8732 28.3328 83.9097 27.0363C84.9459 25.7404 85.7526 23.6963 85.7949 21.9292C85.7949 21.9165 85.9564 11.9082 85.9564 11.9082C85.9564 11.9082 87.0448 11.3396 86.9986 10.2821C86.9518 9.22502 86.3459 8.92643 85.9653 8.91928C85.5847 8.91212 85.1243 9.16256 85.1243 9.16256C85.1243 9.16256 84.0656 9.52802 83.4057 9.48783C82.7458 9.44766 82.0482 9.2974 81.8351 9.25282C81.6374 9.21018 81.1396 9.07476 81.1396 9.07476L80.9756 9.05659L80.76 9.02687C80.76 9.02687 79.8824 9.04917 79.8798 10.1329C79.8757 11.2174 81.1209 11.8449 81.1209 11.8449L81.0746 14.7243C81.0746 14.7243 81.1382 15.4387 80.11 15.4599C79.0829 15.4814 78.4872 15.4296 77.5775 14.3839C76.6681 13.3381 76.5244 11.2227 76.5795 10.1266C76.6349 9.03017 77.0645 5.49665 79.8447 5.29162C81.0775 5.20163 82.1132 6.26637 82.1132 6.26637C82.1132 6.26637 83.1642 7.24635 83.8759 7.15058C84.5874 7.05481 85.2021 6.80713 85.2401 5.92925C85.2497 5.70882 85.2875 5.4328 84.8362 5.04312C84.7792 4.99471 84.1065 4.14653 84.4751 1.48566C84.6773 0.0301418 83.0788 0.0342636 82.9753 0.0172005C82.8731 0.000154495 82.3454 -0.120955 81.0224 0.638315C80.9983 0.650675 80.6049 1.06101 78.7119 0.744812C78.6964 0.742237 75.7059 0.60199 73.4788 3.30773C72.9894 3.90243 71.2213 5.80211 71.0108 9.99363C70.8851 12.5004 71.8678 14.863 73.5134 16.87C73.9146 17.3574 75.8664 19.8842 80.4875 19.6354C80.5051 19.6334 80.4767 21.1435 80.4767 21.1435" fill="black"/>
<path d="M55.3543 17.177C55.3543 17.177 53.9882 17.6497 54.0001 18.778C54.0119 19.9058 54.9778 19.9063 54.9778 19.9063L55.1529 19.8914L55.4285 19.8238L55.617 19.7833C55.617 19.7833 57.6165 19.4887 58.7666 19.7964C58.7745 19.7984 58.9291 19.8259 58.9291 19.8259L59.1918 19.8794L59.3919 19.9321L59.6312 19.9745L59.8818 20L60.1206 19.9875C60.1206 19.9875 60.8619 19.839 60.8993 18.7935C60.9356 17.7477 60.0837 17.3958 60.0837 17.3958L60.0827 5.02943L60.1823 4.89365C60.1823 4.89365 60.7957 4.10695 61.8503 4.14715C62.9049 4.1879 63.5709 5.65319 63.5944 5.74904C63.6181 5.84409 64.3491 7.47316 64.3473 9.45578C64.3458 11.1525 63.5815 13.7165 63.5815 13.7165C63.5815 13.7165 63.1781 15.534 61.5886 18.0195C61.5825 18.028 61.4867 18.2102 61.4867 18.2102C61.4867 18.2102 61.2848 18.6428 61.2987 18.9822C61.3124 19.3214 61.4535 19.8919 62.167 19.8922C62.1785 19.8922 62.3789 19.8797 62.3789 19.8797L62.7177 19.8389L63.3314 19.7713L63.8466 19.7287L64.5366 19.7034H65.25L65.7399 19.7439L66.1417 19.7718L66.4552 19.7846L66.7316 19.8245L66.9317 19.8647L67.196 19.9201L67.4819 19.9481L67.747 19.9455L68.0229 19.9075C68.0229 19.9075 68.815 19.7552 68.8638 18.6434C68.9125 17.5322 68.0837 17.0551 67.7212 17.1933C67.7112 17.1969 67.4603 17.0423 66.4805 17.7209C66.476 17.723 66.3549 17.7886 66.3549 17.7886L66.204 17.8163H66.0532L65.9279 17.7764L65.8142 17.668L65.7397 17.532L65.7273 17.4217V17.2734L65.751 17.1502L65.8023 17.0573L65.89 16.934C65.89 16.934 68.5636 13.5263 68.9264 12.5362C69.2887 11.5455 69.8665 10.975 69.9924 8.51905C70.1132 6.13127 68.7606 4.09514 68.7606 4.09514C68.7606 4.09514 67.2571 1.63513 65.3874 0.998335C63.5178 0.36208 63.8587 0.442467 62.5903 0.374847C61.7358 0.327888 60.1541 0.743341 59.2037 1.29677C59.1879 1.30765 59.0782 1.31141 59.0782 1.31141L58.9273 1.26932L58.6003 1.05263C58.6003 1.05263 56.7954 -0.100931 55.7032 0.00714684C54.6114 0.114681 54.0217 0.958664 54.0473 1.82655C54.0728 2.6939 54.5003 3.43824 55.3157 4.07857C55.3257 4.08726 55.3541 17.177 55.3541 17.177" fill="black"/>
<path d="M44.1474 20L43.7528 19.8776L43.3239 19.7852L42.9976 19.7184C42.9496 19.7079 42.5906 19.6339 42.0994 19.5931C41.5878 19.5504 40.9 19.5407 40.2644 19.6966L39.9919 19.7509L39.7542 19.7936L39.5925 19.8252L39.4075 19.8525H39.2621L39.0696 19.8319C39.0372 19.8209 38.9714 19.7919 38.9269 19.7549C38.8573 19.6966 38.7235 19.549 38.7235 19.1413C38.7235 18.8081 38.9309 18.4839 39.2319 18.2004C39.3743 18.0667 39.5188 17.9602 39.6297 17.8851C39.6851 17.8483 39.7311 17.8194 39.763 17.8C40.0516 17.6235 40.0535 17.3587 40.0535 17.3485C40.0733 16.8937 40.0637 14.5616 40.0637 14.5616L39.2977 14.4546L39.2629 14.4551C39.2008 14.4561 35.154 14.4983 35.0025 10.2191C34.9537 8.83884 35.6388 8.08901 36.3726 7.65534C36.7469 7.43431 37.1297 7.30055 37.4234 7.22165C37.7294 7.14005 37.9479 7.11519 37.9503 7.11465C38.0552 7.08628 39.7515 6.41401 39.7515 6.41401C39.7515 6.41401 38.0536 6.04869 37.9069 5.98844C37.7431 5.92062 37.5238 5.80686 37.3051 5.6215C36.8829 5.26456 36.423 4.61282 36.4176 3.39068C36.4128 2.23825 36.9648 1.67649 37.5268 1.37224C37.818 1.21417 38.1149 1.12689 38.3412 1.07907C38.4531 1.055 38.5454 1.04124 38.6094 1.03341C38.6592 1.02693 38.7026 1.0153 38.7403 1.00018C38.7963 0.998158 38.8951 1.01393 38.9818 1.01555C39.1778 1.01909 39.3526 1.03124 39.4123 1.04499C40.0219 1.18307 40.2535 1.2171 40.2535 1.2171L40.8545 1.32627L41.3128 1.39383L41.86 1.47218L42.377 1.5184L43.0308 1.60568L43.5608 1.64052L44.4199 1.69645L45.1181 1.73993L45.7593 1.76345C45.7593 1.76345 46.695 1.76943 47.9064 1.70537C49.1288 1.64051 50.6371 1.5027 51.7784 1.21979C52.8554 0.952017 53.0072 1.42083 52.9997 1.84344C52.9888 2.49733 52.5527 3.19257 52.1511 3.33335C52.1511 3.33335 51.8322 3.6103 51.8282 3.94698L51.8237 4.37553L51.8117 5.90003L51.7793 10.5224L51.7338 17.4205L51.9921 17.7602L52.1766 17.9285L52.3407 18.0669L52.4743 18.189C52.4861 18.2014 52.5029 18.2192 52.5222 18.2444C52.545 18.2741 52.5742 18.3171 52.6028 18.3771C52.6577 18.4933 52.7203 18.6921 52.7115 19.0048C52.6925 19.703 52.3094 19.9499 52.19 19.9429C51.6789 19.9107 50.7309 19.704 50.7309 19.704L50.3767 19.6546L50.0113 19.6433H49.7021L49.3918 19.6538C49.3535 19.6553 49.066 19.6627 48.7214 19.6913C48.371 19.7205 47.8961 19.7754 47.5815 19.8883C47.5114 19.9129 47.3952 19.9313 47.3414 19.9383L47.136 19.9308L47.0257 19.9067C46.9861 19.8816 46.9079 19.8256 46.849 19.7597C46.7382 19.6346 46.5974 19.4014 46.5942 18.9707C46.5874 18.2568 47.5601 17.8256 47.6506 17.7904L47.9574 17.6718V14.743H43.8324V17.7845L44.1681 17.8896C44.2174 17.905 44.8976 18.1511 44.8516 18.8175C44.7887 19.7429 44.3124 19.9723 44.2733 19.9799C44.2195 19.9899 44.178 19.995 44.1451 19.9972L44.1471 19.9997L44.1474 20ZM46.8487 4.91197C46.4832 5.03789 46.0035 5.27486 45.5278 5.71989C44.5632 6.62184 43.6947 8.29793 43.7067 11.3667C43.7067 11.375 43.8259 11.8584 44.3161 11.8633L44.701 11.8648C45.0175 11.8651 45.4389 11.8648 45.8605 11.8638C46.7033 11.8623 48.0146 11.8576 48.0146 11.8576L47.987 4.75036C47.987 4.75036 47.2371 4.77736 46.8487 4.91167" fill="#FF8028"/>
<path d="M25.5033 0.750536C26.0951 0.636629 26.5383 0.521349 26.6267 0.497805L27.4648 0.331327L27.8806 0.274376L28.4256 0.229185C28.4256 0.229185 28.737 0.200178 29.1985 0.246449C29.6776 0.294359 30.307 0.42115 30.9293 0.7311C32.1313 1.32937 33.4012 2.65266 33.3966 5.74064C33.3931 8.50089 29.5881 11.2819 29.5105 11.3378L29.381 11.4306C29.381 11.4306 29.0398 12.473 29.8652 15.6163C30.6571 18.6312 31.9975 20.504 32.0175 20.5319L32.3919 21.0538C32.3919 21.0538 32.8153 20.4709 32.8886 20.395C32.9775 20.3036 33.1203 20.1743 33.323 20.0437C33.7261 19.7839 34.3809 19.5074 35.3547 19.5137C36.026 19.5172 39.1905 20.2795 38.991 23.9876C38.8774 26.0724 37.9385 27.0417 37.0593 27.5192C36.6062 27.7653 36.155 27.8864 35.814 27.9452C35.5302 27.9948 35.329 27.9997 35.2782 28C35.1493 27.9934 34.9524 28.0063 34.6932 27.9948C34.4555 27.9844 34.1581 27.9491 33.807 27.845C33.1059 27.6361 32.144 27.1372 30.9745 25.9182C29.7736 24.6675 29.1528 23.7404 28.7251 22.9299C28.2742 22.0745 28.0198 21.3257 27.5818 20.476C26.7407 18.8455 25.8164 14.8031 25.8102 14.7746L25.6988 14.2237L25.217 14.0824L25.0289 14.1035L24.8623 14.1243L23.6157 14.6215C23.6157 14.6215 23.5849 15.4851 23.5757 16.0196C23.5711 16.2914 23.569 16.5633 23.5725 16.7695C23.5744 16.8842 23.5782 16.9809 23.5838 17.0493C23.6176 17.4425 23.8893 17.5666 23.9504 17.5844C23.965 17.5885 24.0315 17.6071 24.1229 17.6454C24.2167 17.6854 24.3316 17.7437 24.4403 17.8248C24.6544 17.9838 24.8153 18.2007 24.8121 18.535C24.805 19.3367 24.1586 19.3263 24.1194 19.3249C24.1194 19.3249 23.43 19.3121 22.6627 19.1078C22.1934 18.9827 21.6308 18.9545 21.2083 18.9528C20.773 18.9513 20.3896 18.984 20.3896 18.984L20.3358 19.0032C19.8638 19.1678 19.249 19.2349 19.0565 19.2521C18.9884 19.2461 18.8235 19.2225 18.6802 19.142C18.548 19.0673 18.4358 18.9548 18.4436 18.6719C18.4642 17.9356 19.5956 17.4661 19.7067 17.4261L20.0282 17.31L20.0174 10.8484C20.0174 10.8484 20.0276 4.84715 20.0174 2.80949L20.0155 2.40973L19.6462 2.32376C18.7159 2.10636 18.3506 1.69018 18.1952 1.39721C18.1125 1.24141 18.0762 1.09601 18.0595 0.988132C18.0511 0.9331 18.0476 0.887365 18.0457 0.855057C18.0397 0.750736 18.0192 0.671347 18 0.617134C18.0105 0.523214 18.0757 0.431757 18.12 0.32415C18.1976 0.134949 18.3287 -0.0120869 18.6367 0.00078392H18.7529C18.7859 0.010622 18.8595 0.0317383 18.9016 0.0503387C18.9765 0.0829277 19.0617 0.123707 19.1601 0.169434C19.3758 0.269646 19.6492 0.392324 20.0017 0.512253C20.7162 0.755119 21.7319 0.978542 23.2156 0.995247C23.9732 1.00401 24.8329 0.879421 25.5034 0.750458L25.5033 0.750536ZM23.453 10.168C23.453 10.168 23.9575 10.2636 24.1505 10.2578C24.31 10.2523 24.5431 10.2285 24.8356 10.1502C25.4066 9.99717 26.1738 9.64505 27.0444 8.86826C27.6846 8.29819 28.2934 7.43926 28.3883 5.80656C28.4891 4.07117 27.6489 3.26646 26.8249 2.79907C26.3561 2.53293 25.8451 2.5061 25.4839 2.53047C25.103 2.55701 24.8232 2.64712 24.8232 2.64712L24.6699 2.70078L24.5466 2.73393L24.3741 2.79006L24.1878 2.86317L24.0418 2.94094L23.8721 3.02361L23.453 3.4064V10.168V10.168Z" fill="#FF8028"/>
<path d="M16.9995 11.3488C16.9613 15.5722 13.6664 21.0668 8.44713 20.9994C3.22011 20.9325 -0.0706583 15.4678 0.00115191 11.0237C0.0732216 6.53775 3.29738 0.875299 8.55459 1.00209C14.6319 1.14832 17.0386 7.07084 16.9995 11.3488ZM5.95122 8.29591C5.96865 10.3784 6.66542 13.1201 8.54002 13.1795C12.1573 13.2925 11.9619 3.51134 8.51166 3.48516C6.58372 3.47088 5.93431 6.22587 5.95123 8.29591" fill="#FF8028"/>
<path d="M55.3316 10.1304L55.3191 5.62961L55.3136 4.14446L55.3111 3.72615C55.3087 3.36077 55.1315 3.19028 55.1294 3.18839C54.3961 2.6099 54.0669 1.9869 54.0472 1.31477C54.0299 0.721899 54.4228 0.0907631 55.2784 0.00552368C56.183 -0.0843296 57.834 0.951565 57.884 0.983601L58.2619 1.23443L58.565 1.32019C58.565 1.32019 58.9049 1.25994 58.9494 1.22899C59.8344 0.711586 61.3128 0.332901 62.0647 0.374704C62.3777 0.391266 62.5911 0.39889 62.7643 0.410828C62.9151 0.421141 63.0306 0.43445 63.1621 0.463493C63.4591 0.529453 63.8278 0.666273 64.7322 0.975462C66.4133 1.55096 67.8328 3.85429 67.8482 3.879C67.8482 3.879 68.1641 4.36056 68.4624 5.11032C68.7683 5.87801 69.0482 6.90387 68.993 7.99351C68.9333 9.17843 68.7659 9.88231 68.5815 10.3992C68.3775 10.9709 68.1442 11.3601 67.964 11.8542C67.6392 12.7454 65.053 16.0713 65.0142 16.1213L64.9029 16.2773L64.7984 16.4685L64.7502 16.7215L64.7505 16.9489L64.7764 17.1922L64.9367 17.4859L65.18 17.7183L65.4655 17.8105H65.7216L65.977 17.7636L66.1847 17.6496C66.649 17.3266 66.9258 17.2145 67.0405 17.1854C67.068 17.1789 67.0853 17.174 67.0971 17.1748C67.2718 17.1892 67.3425 17.1602 67.3532 17.1558C67.4132 17.1757 67.53 17.2413 67.6055 17.3157C67.7492 17.4569 67.8886 17.7107 67.8708 18.1182C67.8524 18.53 67.7071 18.7146 67.6044 18.8039C67.5465 18.8544 67.4897 18.885 67.4488 18.9021L67.1812 18.9474L66.9727 18.949L66.7336 18.9259L66.4921 18.8754L66.2805 18.833L65.972 18.7885L65.6381 18.7739L65.2499 18.7467L64.751 18.706L64.0156 18.7055L63.3122 18.7315L62.7836 18.775L62.1661 18.8437L61.839 18.8827L61.6554 18.8936C61.334 18.889 61.2707 18.7022 61.2607 18.4585C61.2531 18.2684 61.3909 17.9495 61.3998 17.931C61.4183 17.893 61.4605 17.8105 61.4637 17.8061C63.0031 15.3874 63.4643 13.5665 63.5146 13.352C63.5458 13.2467 63.7228 12.6327 63.8996 11.8392C64.0916 10.9795 64.2932 9.86731 64.2945 8.95765C64.2955 7.9033 64.1026 6.95103 63.9098 6.25446C63.7278 5.5959 63.5416 5.17106 63.53 5.12409C63.4978 4.99162 62.7462 3.20787 61.3673 3.15466C60.7296 3.13023 60.2257 3.35772 59.8857 3.58764C59.715 3.7022 59.584 3.81893 59.4934 3.90878C59.3926 4.00922 59.3368 4.08305 59.3368 4.08305L59.1343 4.3594L59.1348 17.2184C59.1348 17.2184 59.4557 17.3693 59.496 17.3951C59.5502 17.4291 59.6225 17.4817 59.6932 17.5561C59.8275 17.6981 59.9593 17.918 59.9467 18.2725C59.9331 18.6517 59.8016 18.8176 59.7131 18.8969C59.662 18.9419 59.6117 18.9693 59.5759 18.9848L59.3978 19L59.2021 18.9796L58.9979 18.9433L58.8041 18.8922L58.5262 18.8352L58.3761 18.8078C57.736 18.6397 56.9037 18.6416 56.2647 18.6764C55.6023 18.713 55.0744 18.792 55.0744 18.792L54.8675 18.8363L54.6192 18.8974L54.5013 18.9074C54.417 18.9034 54.0061 18.8539 54 18.2703C53.9924 17.5661 54.9329 17.1809 55.029 17.1475L55.348 17.0368L55.3318 10.1303L55.3316 10.1304Z" fill="#FF8028"/>
<path d="M80.4492 20.8964C80.4517 20.7054 80.4537 20.5144 80.4537 20.371C80.4542 19.816 79.9649 19.6327 79.9476 19.6344C77.7344 19.7538 76.194 19.2055 75.1586 18.589C74.6384 18.2791 74.2429 17.9493 73.9552 17.6691C73.8116 17.5296 73.6939 17.4018 73.6009 17.295C73.5053 17.1847 73.4347 17.096 73.3865 17.0377C71.8051 15.0999 70.8933 12.8608 71.01 10.5195C71.1115 8.49833 71.5848 7.0461 72.0816 6.03483C72.3304 5.52837 72.5866 5.12899 72.8098 4.82071C73.0392 4.5039 73.2336 4.28178 73.3516 4.13782C74.3864 2.87553 75.5981 2.27658 76.5573 1.9928C77.0349 1.85132 77.4483 1.78884 77.7437 1.76214C77.8875 1.74864 78.0026 1.74426 78.0822 1.74287C78.1227 1.74287 78.1456 1.73927 78.1462 1.73979C79.1179 1.90246 79.7406 1.88483 80.1439 1.80721C80.3466 1.76785 80.4971 1.71363 80.6082 1.65721C80.6801 1.62033 80.719 1.5873 80.7248 1.58427C81.3532 1.22149 81.7773 1.07864 82.0282 1.02799C82.1411 1.00543 82.2261 0.998827 82.2876 1.00017C82.3406 1.0012 82.3726 1.00872 82.3886 1.0117C82.4147 1.01583 82.5353 1.01887 82.6981 1.04421C82.8353 1.06538 82.9919 1.10311 83.1315 1.16917C83.377 1.2856 83.5534 1.46039 83.491 1.90932C83.1149 4.6376 83.7699 5.72042 84.0224 5.93539C84.1985 6.08898 84.2347 6.18037 84.2438 6.209C84.2489 6.22553 84.2515 6.24314 84.2523 6.269C84.2538 6.31716 84.2503 6.36204 84.2483 6.40416C84.2283 6.8718 83.9798 7.0576 83.2979 7.15008C82.8531 7.20981 82.0151 6.48452 81.912 6.39094C81.8865 6.36508 81.8164 6.29652 81.7088 6.20486C81.5796 6.09476 81.3932 5.94944 81.1638 5.80768C80.7123 5.52776 80.0526 5.23324 79.3094 5.28801C77.7006 5.40692 76.7811 6.51068 76.2766 7.6582C75.779 8.79057 75.653 10.0234 75.6242 10.5981C75.5694 11.6953 75.6919 14.0126 76.743 15.2265C77.7709 16.4144 78.5159 16.4857 79.6149 16.4632C80.2337 16.4502 80.6383 16.2179 80.8578 15.8626C80.959 15.6993 81.0024 15.5369 81.0205 15.4158C81.0338 15.3231 81.0338 15.2507 81.0322 15.2105L81.0836 12.0275L80.8104 11.889C80.7427 11.8546 79.8397 11.3485 79.8421 10.6342C79.8431 10.2709 79.9742 10.1561 80.0549 10.1038C80.1093 10.0686 80.1673 10.0487 80.2142 10.0377L80.414 10.0548L80.5493 10.0702C80.6663 10.1018 81.061 10.2081 81.2333 10.2452C81.4542 10.2917 82.1779 10.4473 82.8611 10.4891C83.2604 10.5136 83.7436 10.4173 84.0952 10.3289C84.4619 10.2378 84.7773 10.128 84.7773 10.128L84.8101 10.1101C84.8221 10.1035 85.1814 9.91631 85.4283 9.92099C85.5732 9.92357 85.9653 10.025 85.9991 10.8051C86.0292 11.4916 85.2717 11.9301 85.2237 11.9556L84.9662 12.0908L84.8002 22.422C84.76 24.0611 84.0038 25.9945 83.0353 27.2111C82.1272 28.352 80.418 29.0762 78.1286 28.9936C75.8735 28.9124 74.5995 28.3426 74.6245 25.4894C74.6499 22.6141 77.0847 21.5699 77.9789 21.5762C78.4309 21.5788 78.8731 21.7036 79.2116 21.8346C79.5353 21.9601 80.4214 22.4859 80.4214 22.4859C80.4214 22.4859 80.4438 21.2753 80.4492 20.8966" fill="#FF8028"/>
<path d="M88.5007 9.83234C88.5104 8.0993 88.519 6.3644 88.5224 5.0598C88.5245 4.40697 88.5245 3.86158 88.5234 3.47801C88.5224 3.28372 88.5219 3.13088 88.5198 3.02528C88.5151 2.7159 88.4028 2.56199 88.3956 2.55354C88.2883 2.43106 88.1597 2.30515 88.0258 2.18028C87.9055 2.06783 87.7805 1.95643 87.6676 1.85031C87.5571 1.74551 87.4773 1.66341 87.4279 1.60058C87.4376 1.0552 87.9088 1.02827 87.9349 1.02669L88.5223 1L89.4222 1.04248L90.2143 1.12405L91.2115 1.18266L93.9807 1.23282L94.8984 1.20852L96.0647 1.14912L96.7679 1.13459L97.6634 1.06701C98.1068 1.02028 98.2796 1.17024 98.3535 1.2621C98.4007 1.32176 98.4302 1.38643 98.448 1.43816C98.4594 1.47171 98.4844 1.58628 98.4844 1.58628L98.6128 1.90727L98.745 2.33123L98.9223 2.84123L99.092 3.38478L99.2798 3.96052L99.4293 4.40084L99.7422 5.28861L99.8961 5.71072L100 6.16161C99.9953 6.19886 99.9825 6.26271 99.9594 6.30548C99.9311 6.35695 99.8358 6.50821 99.4135 6.53065C99.029 6.5507 98.6964 6.37332 98.3933 6.10353C98.2432 5.97022 98.1116 5.82371 97.9929 5.68459L97.8257 5.48608C97.7762 5.428 97.7195 5.36254 97.6623 5.30789C96.863 4.53838 96.1895 4.17144 95.6852 4.00249C95.4332 3.91776 95.2282 3.88371 95.0748 3.87315C94.9642 3.86525 94.8845 3.86968 94.8372 3.87363L91.9113 3.87808L91.9191 7.99277C91.9191 7.99277 92.8443 8.0147 93.2969 8.02419L93.9226 8.03634L94.1341 8.03833C94.4452 8.03932 94.6 7.85063 94.6069 7.84219C94.6981 7.71257 95.0362 7.38154 95.6727 7.41586C96.352 7.45227 96.5996 7.70807 96.7035 7.8757C96.7641 7.97285 96.7946 8.07026 96.8082 8.14391C96.8188 8.19697 96.8199 8.23604 96.8199 8.23604C96.8199 8.23604 96.7988 10.8574 96.7702 11.2576C96.7491 11.5567 96.3609 11.9004 95.4977 11.9115C94.9151 11.9191 94.4636 11.2634 94.443 11.232L94.2983 11.0052L91.9775 11.0279L91.9072 17.0818C91.9072 17.0818 93.8893 17.1111 94.8181 17.113C95.4541 17.1145 96.0884 16.7115 96.4998 16.3995C96.719 16.2337 96.9094 16.0661 97.0486 15.938C97.1169 15.8747 97.1722 15.8213 97.2122 15.7823C97.4414 15.6096 97.6595 15.3322 97.8223 15.1112C97.9815 14.8945 98.1463 14.6524 98.3288 14.4318C98.6856 13.9988 98.9754 13.8196 99.3115 13.8705C99.9192 13.9621 99.8467 14.535 99.8078 14.7076C99.6758 15.0405 98.5075 17.9881 98.4503 18.1528C98.2669 18.6879 98.0991 18.8817 98.0324 18.9406C98.0763 18.9445 98.1391 18.9477 98.1391 18.9477L98.0313 18.9497L97.8721 18.9711L97.4753 18.9861L96.9113 18.9513L96.0981 18.9093L95.366 18.881L94.4983 18.8256L93.614 18.7968L92.8624 18.7834L92.2059 18.7843L91.1098 18.7651L90.5611 18.7822L90.0137 18.8002L89.5261 18.8189L89.111 18.8413L88.7501 18.8899L88.5506 18.9142L88.312 18.9533L88.1572 18.9839L87.9441 18.9929L87.7999 19L87.6204 18.9802L87.4935 18.9371C87.4426 18.9218 86.9864 18.7492 87.0003 18.3588C87.0289 17.5367 88.0289 17.2379 88.0928 17.2213L88.4534 17.1276C88.4534 17.1276 88.4809 13.298 88.5006 9.8324" fill="#FF8028"/>
</svg>
