<svg width="100" height="61" viewBox="0 0 100 61" fill="none" xmlns="http://www.w3.org/2000/svg">
<path d="M1.38301 57.3719C5.04896 50.2523 8.7253 43.1381 12.412 36.0293C17.7982 25.6548 21.2573 18.4818 21.0027 18.2145C20.841 18.0452 16.347 18.3569 11.0156 18.9074C5.68479 19.4579 0.868476 19.8168 0.313125 19.705C-0.566138 19.5268 17.1922 15.2212 46.554 8.49304C51.3672 7.38997 57.6687 5.92077 60.5566 5.22837C63.4444 4.53598 68.9581 3.25632 72.8089 2.38525C76.6597 1.51368 80.3358 0.666955 80.9774 0.50279C81.6191 0.339142 68.4911 7.39567 51.8047 16.184C35.1184 24.9722 21.1809 32.4819 20.8311 32.8724C20.483 33.2629 19.4327 37.1018 18.4976 41.4038L16.798 49.2252L9.50457 54.1989C6.62976 56.1614 3.75226 58.12 0.872092 60.0746C-0.38016 60.9177 -0.34658 60.7411 1.38301 57.3714V57.3719Z" fill="black"/>
<path d="M26.4096 26.0567C28.6052 24.7128 32.6183 22.2621 35.3276 20.6109C38.0369 18.9592 40.5009 17.3509 40.8041 17.0372C41.5246 16.2896 40.6297 16.3052 31.6947 17.1916C24.4207 17.9129 24.2889 17.9531 23.9671 19.5711C23.7876 20.4763 23.2714 22.4787 22.8198 24.0211C22.0214 26.7485 21.7823 28.5 22.2082 28.5C22.3236 28.5 24.2145 27.4006 26.4096 26.0567Z" fill="white"/>
<path d="M63.2111 58.0647C61.6155 56.7172 56.3025 52.4149 51.4046 48.5035L42.4996 41.3922L39.7223 42.9937C38.1945 43.8744 36.8043 44.5952 36.6317 44.5952C36.4591 44.5952 37.4928 40.8738 38.9276 36.3259L41.5368 28.056L43.151 30.025C44.0387 31.1075 48.1136 36.4195 52.2065 41.8294C56.2994 47.2382 61.1675 53.5386 63.0251 55.8292C67.5645 61.4275 67.5922 61.7627 63.2111 58.0641V58.0647ZM78.864 50.2814C79.9222 46.9847 82.0347 40.179 83.5584 35.1569L86.3274 26.0261L85.2435 23.7849C84.6475 22.5524 84.0403 21.2934 83.8939 20.9869C83.7398 20.6642 84.9851 20.5991 86.8591 20.8328C90.0319 21.2278 90.1522 21.1846 93.477 18.461C99.0073 13.9307 100.28 12.972 99.9521 13.5857C99.7805 13.9057 98.5943 16.1037 97.3161 18.4703C95.993 20.9206 94.6857 23.3795 93.3943 25.8471C92.5158 27.5371 89.6544 32.9313 87.0343 37.8337C84.4153 42.7355 81.1634 48.8902 79.8082 51.5108C78.4535 54.1309 77.2534 56.2747 77.1419 56.2747C77.031 56.2747 77.8057 53.5776 78.864 50.2814ZM21.7854 42.3717C26.8868 30.8244 27.438 29.8449 28.8441 29.8152C29.5566 29.8006 32.0976 29.5482 34.491 29.2541C36.8845 28.9601 38.9035 28.7831 38.9774 28.8601C39.0514 28.9382 37.4989 30.2061 35.5272 31.6796C32.471 33.9629 32.1089 34.4225 33.0716 34.7972C37.109 36.3706 37.1367 36.0557 32.6724 39.304L28.5395 42.3108L30.7896 44.3162L33.0408 46.3216L31.01 46.6652C29.8931 46.8546 26.7337 47.3839 23.9893 47.842L19 48.6747L21.7854 42.3717ZM50.8687 34.7785C47.961 30.7115 45.6513 27.3835 45.7366 27.3835C45.8219 27.3835 47.8305 28.0825 50.1999 28.9372L54.508 30.4903L61.748 22.3292C70.5354 12.4239 77.6531 4.72763 77.2555 5.56196C77.0942 5.90027 74.8101 9.91055 72.1788 14.4751C68.8282 20.3017 65.4999 26.1413 62.1939 31.9939C59.3335 37.0649 56.8049 41.4302 56.5742 41.6941C56.3441 41.958 53.7765 38.846 50.8687 34.7785ZM65.638 31.7826L70.1341 22.681L75.6079 21.9487C78.6184 21.5458 81.1768 21.3174 81.2934 21.4407C81.4095 21.5641 80.0651 22.6779 78.305 23.9161C76.545 25.1538 75.1055 26.4186 75.1055 26.7267C75.1055 27.0338 75.8854 27.4673 76.8394 27.6896C77.7928 27.9113 78.6934 28.2985 78.8403 28.5504C78.9873 28.8023 77.4327 30.1743 75.386 31.6004C73.3398 33.026 71.53 34.424 71.3645 34.7077C71.1996 34.9908 72.1089 35.9891 73.3855 36.9265C74.6622 37.8639 75.6269 38.7154 75.5293 38.8184C75.4317 38.9215 72.8816 39.2999 69.8619 39.659C66.8422 40.0181 63.6447 40.4408 62.757 40.5979C61.1567 40.8816 61.1824 40.8025 65.638 31.7826Z" fill="black"/>
</svg>
