<svg width="40" height="74" viewBox="0 0 40 74" fill="none" xmlns="http://www.w3.org/2000/svg">
<path d="M32.956 70.3664C33.2733 70.7013 33.6006 70.9427 33.4982 70.8C34.1074 71.5197 34.182 71.4732 34.1651 71.663C34.54 72.1415 35.0632 72.5274 34.6211 71.9989L35.7841 73.2953L35.0352 72.5741C35.0923 72.7174 35.3915 73.0055 35.693 73.2995L35.8056 73.4098L35.8336 73.4373L35.8474 73.4509L35.9085 73.5065L35.9681 73.5552L36.0264 73.6032L36.0551 73.6271C36.0633 73.6345 36.0911 73.6515 36.1084 73.6629C36.1853 73.7121 36.2644 73.7577 36.3454 73.7996C36.4244 73.8415 36.4823 73.8535 36.5475 73.8789C36.6104 73.8987 36.6685 73.9247 36.7248 73.9345C36.8366 73.9582 36.9312 73.9784 37 74L36.8645 73.9896C36.7452 73.9823 36.6273 73.9593 36.5139 73.9211C36.4419 73.8979 36.3711 73.8809 36.2746 73.827C36.229 73.8032 36.1824 73.7774 36.1361 73.7496L36.0666 73.7065C36.044 73.6919 36.0169 73.6743 36.0115 73.6683L35.881 73.5598L35.8726 73.5528L35.8133 73.4991L35.7982 73.4835L35.7676 73.4523L35.7057 73.3894L35.0465 72.7178L35.0845 72.8131C34.8129 72.4784 34.2132 71.9008 33.9968 71.7071C34.0151 71.7535 33.9717 71.7559 34.2031 71.9939C32.5946 70.3888 33.9208 71.4098 32.6199 70.0437C32.7007 70.1288 32.8051 70.2313 32.956 70.3664ZM31.3865 69.2073L30.9346 68.5375L29.9694 67.622C29.9959 67.5742 29.3429 66.8571 29.8377 67.2895C29.9223 67.3862 30.09 67.5772 30.2377 67.7191C30.213 67.5336 29.0309 66.4247 29.3873 66.6207C30.1075 67.388 30.2389 67.4847 30.6304 68.0092C31.3175 68.6856 31.8308 69.1651 32.1772 69.4552C32.3668 69.6704 32.3463 69.748 32.5928 70.0159L32.4219 69.8377L32.2743 69.9306C32.0859 69.69 31.8718 69.4988 31.637 69.2576L32.5942 70.5027C32.1279 70.2597 31.1157 69.1086 30.6384 68.7221C31.2735 69.1575 30.2627 68.243 31.3865 69.2073ZM32.5928 70.0155L32.6195 70.0429L32.5928 70.0155ZM25.1228 14.7827C24.8874 15.0153 24.7903 15.0559 24.7423 15.0756L27.3715 12.4347C27.3208 12.5492 26.6033 13.3497 27.1276 12.8601C26.937 13.1221 26.2203 13.7829 26.0782 13.8404L26.3166 13.6971C25.6496 14.244 25.3576 14.7819 25.7885 14.4213L25.7368 14.472L23.8233 15.9201C24.425 15.2869 24.379 15.5254 25.1228 14.7827ZM35.3002 69.6269C34.9709 69.2734 34.9403 69.2197 34.9906 69.247C35.0982 69.3699 35.2015 69.4967 35.3002 69.6269ZM23.3758 16.2585L22.7765 16.7123C23.0067 16.5207 23.2183 16.3616 23.3758 16.2585ZM28.1419 13.7333C28.1469 13.7363 28.1561 13.7341 28.1475 13.7533L27.8737 13.9523C27.8758 13.9504 27.8778 13.9484 27.8797 13.9463C27.976 13.8682 28.0623 13.7984 28.1419 13.7333ZM11.1777 27.9706L11 28.1388C11.0633 28.0763 11.1222 28.0212 11.1777 27.9706ZM35.6822 7L34.4429 8.10344C34.6323 7.98072 34.0586 8.53745 34.3442 8.32944C34.2499 8.41353 33.8191 8.8199 33.9156 8.68798L34.1561 8.45036C33.4418 8.97105 33.7771 8.55766 32.681 9.50975C33.2566 8.8131 33.5879 8.58729 33.9685 8.29441L34.2877 8.00054L35.3963 7.16196L35.6822 7ZM19.5843 52.6901L19.5793 52.6695C19.5883 52.6841 19.5879 52.6889 19.5843 52.6901ZM19.5596 52.5866L19.5793 52.6697C19.5322 52.5906 19.3069 52.3336 19.5596 52.5866ZM23.6325 16.1283C23.5983 16.1259 23.5085 16.1714 23.3758 16.2583L23.8233 15.9201L23.6325 16.1283ZM24.7388 15.4479L25.7368 14.472L26.1504 14.1585C25.7547 14.5178 25.3011 14.9476 24.7388 15.4479Z" fill="#F16A50"/>
<path d="M13.0111 26.4287C10.9811 28.42 13.6206 26.0497 12.7223 26.999C12.1494 27.5425 11.8976 27.6851 11.5317 28.0151C13.1763 26.4702 11.1359 28.0525 12.7768 26.4767C12.4491 26.6069 11.5071 27.5272 10.9868 28.0982C10.4623 28.8089 11.5972 27.6289 11.8304 27.5815C11.168 28.2102 11.2648 28.0796 10.9374 28.3001C9.94396 29.333 8.71974 30.2763 8.24465 31.0109C7.48864 31.7221 7.49159 31.6287 7.01905 32C6.83354 31.9828 8.05914 30.8584 8.25173 30.5076C8.20393 30.5724 8.11088 30.6991 8.15711 30.6815L8.77128 30.0275C8.20334 30.6633 8.9564 30.045 9.2869 29.7318C9.52356 29.5003 9.99432 29.0406 9.90206 29.0765L9.52494 29.4082C9.95006 28.9213 10.6075 28.4779 11.0354 27.9427C11.0379 27.8949 10.8446 28.066 10.8027 28.0794C11.4129 27.6099 11.9305 27.0866 12.7801 26.338L12.2155 26.7001C12.9672 26.1733 14.3858 24.6979 15.3323 23.6387C15.238 23.7666 15.049 23.9785 15.1888 23.8779C15.8032 23.3142 16.1801 22.8014 15.8538 23.021C16.5138 22.5298 17.981 20.7634 18.8751 20.0886L23 17C22.8433 17.1283 22.6909 17.2617 22.543 17.3999C22.3028 17.815 22.1151 17.9805 22.774 17.4904C22.1623 18.0065 22.3071 17.7209 21.4545 18.5625C21.832 18.2752 22.0174 18.2923 21.2145 19.1125C19.093 21.0491 17.4945 22.1408 15.467 23.9037C15.465 24.0412 13.955 25.5066 13.2464 26.2438C13.596 26.0413 14.1545 25.5266 14.7273 24.9856L13.3369 26.3897L13.0111 26.4287Z" fill="#F16A50"/>
<path d="M17.7951 21.6895C17.7464 21.749 17.6959 21.8071 17.6438 21.8637C17.668 21.8284 17.7124 21.776 17.7951 21.6895ZM14.5909 24.6326C14.6009 24.6279 14.6005 24.6326 14.6059 24.633L14.4153 24.809L14.5909 24.6326ZM23.6081 16.6456C23.7545 16.5418 23.8534 16.4559 24 16.3523L23.7126 16.5978C23.6137 16.6763 23.5617 16.7083 23.6081 16.6456ZM23.9081 16.1063L23.8113 16.1438C23.8633 16.0883 23.8997 16.0492 23.9453 16C23.9759 16.001 23.9735 16.0294 23.9081 16.1063ZM5.21731 34.8173L5 35C5.12295 34.882 5.18154 34.8369 5.21731 34.8173Z" fill="#F16A50"/>
<path d="M10.7527 29.6828C11.477 28.9852 10.9424 29.7008 11.9581 28.7048L11.6664 29.0034C12.4393 28.3321 13.699 27.0556 14.568 26.2097C14.429 26.2646 15.0424 25.6452 14.8768 25.6813C15.4835 25.1154 16.0836 24.5545 16.4549 24.3204C16.7996 23.9391 17.4148 23.4502 17.8531 22.9657C17.6954 23.1971 18.6482 22.4437 17.4668 23.5103C17.5634 23.4254 17.5149 23.4905 17.6108 23.4072C16.9347 24.1776 16.5496 24.3749 15.9193 24.9913C15.5812 25.3982 16.5965 24.4481 16.2569 24.8117C15.4354 25.5481 13.8374 27.2776 13.7449 27.0846C13.1627 27.6359 13.1158 27.7447 12.9716 27.9378C11.913 28.6748 9.68058 31.298 9.49203 31.0968C9.83005 30.7802 10.3641 30.2479 10.8906 29.8137L10.7527 29.6828ZM22.4823 19.0216C22.4363 19.0679 22.3904 19.1143 22.3445 19.1606L22.4823 19.0216ZM30.9673 9.5733L30.5384 9.74157C28.7989 11.3887 28.2176 12.0305 26.7182 13.4921C26.6217 13.6214 26.8141 13.4545 26.9118 13.3699C25.8466 14.3864 24.3019 15.9554 23.4782 16.6479C23.145 16.9769 22.3084 17.8781 22.6783 17.5895C22.5044 17.7379 22.3074 17.9096 22.1245 18.0972C22.1211 18.1911 22.5564 17.6992 22.605 17.7259C22.4597 17.8744 22.411 17.94 22.3624 17.9592C22.6517 17.7534 22.2603 18.3671 23.421 17.2223C23.7633 16.6742 22.6015 18.0021 22.7482 17.6239C23.1331 17.2444 23.1346 17.3336 23.1821 17.3154C23.6712 16.8302 23.6283 16.8134 23.5749 16.8124C23.8003 16.6637 24.3674 16.006 24.6836 15.8057C25.6494 14.876 24.5422 15.7688 25.1681 15.1572L25.649 14.9223L26.6646 13.8804C28.2105 12.4463 26.6584 14.2963 28.445 12.6765C28.1561 12.8364 28.7395 12.0558 29.5143 11.2461C29.0314 11.7115 28.0679 12.5025 27.4861 13.1441C28.2625 12.1964 26.2763 14.3095 26.6199 13.7596C27.1016 13.3873 27.826 12.6899 28.358 12.1133L28.1634 12.2824C28.7458 11.6854 29.3227 11.3673 30.0956 10.5139C30.5078 10.117 30.3972 10.1586 30.2971 10.2015C30.6607 9.88037 30.9928 9.60058 30.9673 9.5733ZM30.0529 10.4212L29.5189 10.9691C29.6285 10.8221 29.8325 10.6228 30.0529 10.4212ZM24.2576 62.1316L24.4333 62.2849C24.3916 62.2546 24.3261 62.1955 24.2576 62.1316ZM24.9844 13.133L24.672 13.4474C24.7739 13.3405 24.8781 13.2357 24.9844 13.133ZM17.4875 19.7087L16.9972 20.1346C17.153 19.9844 17.3167 19.8423 17.4875 19.7087ZM20.4783 58.4382L20.4622 58.424L20.3957 58.3461L20.4783 58.4382ZM3.53395 33.9599C3.46079 34.0557 3.38377 34.1487 3.30309 34.2385C3.3041 34.2142 3.39173 34.1112 3.53395 33.9599ZM17.5777 19.6304L17.552 19.6599L17.4875 19.7085L17.5777 19.6304ZM27.7587 9.71823L27.9732 9.53137C27.9046 9.59674 27.833 9.65909 27.7587 9.71823ZM27.6553 10.4919C27.7313 10.4233 27.8046 10.3587 27.864 10.3106L27.6553 10.4919ZM39 5L38.557 5.40081C38.7681 5.19734 38.8999 5.08127 39 5ZM28.703 9.30833C28.7333 9.28935 28.7637 9.27057 28.7854 9.2597C28.7228 9.31368 28.6879 9.33424 28.703 9.30833ZM27.323 64.434L27.2976 64.4083L27.301 64.384L27.323 64.434ZM28.1825 65.6229L28.5467 66C28.4209 65.8785 28.2994 65.7528 28.1825 65.6229ZM3.34681 41.544C3.47694 41.6375 3.76238 41.8768 3.65884 41.736C3.84941 41.9725 3.77407 42.0184 3.34681 41.544ZM26.0033 61.6551C26.0549 61.7375 26.1266 61.8327 26.1991 61.928C26.0591 61.7559 25.9354 61.6061 26.0033 61.6551ZM26.1989 61.928L26.4026 62.1812C26.3328 62.0983 26.2649 62.0138 26.1989 61.928ZM2.02312 38.0618C2.00439 38.0394 1.99895 38.0035 2.00016 37.9542C2.02776 37.9706 2.02192 38.0082 2.02312 38.0618Z" fill="#F16A50"/>
<path d="M28.5098 65.9326C28.5476 66.0268 30.0839 67.6856 28.7257 66.3566C28.6895 66.4964 29.5469 67.2593 29.8837 67.6391C29.6027 67.3995 29.9565 67.8249 29.8463 67.7774C29.679 67.5891 29.4932 67.3526 29.1931 67.0652C29.0177 66.9704 29.4362 67.4432 29.7992 67.7762C29.3241 67.394 30.2735 68.3899 29.631 67.8187C28.3649 66.4907 27.48 65.5421 26.6962 64.5015C27.4145 65.2619 28.2155 66.1152 28.8574 66.6861L28.6788 66.3552C27.9262 65.7367 27.5532 65.2637 26.8717 64.5966L28.4267 66.0705C29.1994 66.7164 28.7393 66.2274 28.194 65.6544C28.3325 65.7911 28.4615 65.911 28.5098 65.9326ZM28.1574 64.2445L28.1851 64.2676C28.2044 64.2926 28.2304 64.3218 28.2411 64.3393L28.1574 64.2445ZM36.9996 3.00595L36.8405 3.10725C36.962 3.0115 37.0046 2.98696 36.9996 3.00595ZM26.8852 63.7099L26.8864 63.7109C26.8769 63.7001 26.8745 63.6975 26.8852 63.7099ZM36.0629 4.00639C36.0694 4.00362 36.0761 4.00145 36.0866 3.99551C36.0728 4.00501 36.0704 4.00264 36.0629 4.00639ZM33.5563 3.2307C33.5587 3.221 33.5573 3.21606 33.5678 3.19845C33.6412 3.13356 33.6111 3.17056 33.5563 3.2307ZM36.0532 4.00165C36.0555 4.00402 36.0557 4.00837 36.0629 4.0062C36.0579 4.00639 36.0498 4.00937 36.0532 4.00165ZM20.0342 19.4583C20.0342 19.4583 20.0708 19.3954 20.1365 19.3046C20.1739 19.2815 20.1519 19.3198 20.0342 19.4583ZM23.0285 16.2394L23.0768 16.1743L23.0285 16.2394ZM2.36232 40.7942C2.239 40.6732 2.1182 40.5496 2 40.4236C2.12444 40.5435 2.24526 40.6671 2.36232 40.7942ZM36.0866 3.99551C36.1272 3.97118 36.1816 3.9334 36.2681 3.86752C36.1733 3.94051 36.1204 3.97633 36.0866 3.99551ZM14.9125 23.8098L15.0163 23.7228L14.9633 23.7833L14.9125 23.8098ZM13.3472 25.4869C13.4111 25.4402 13.4456 25.424 13.4844 25.4004C12.8741 25.9474 11.8453 27.0448 11.6383 27.0895C11.8366 26.8952 12.8072 25.8299 12.5864 25.9559C13.01 25.5727 13.5495 24.9201 13.78 24.7161C13.162 25.4224 13.7766 24.856 14.2511 24.4362C14.6342 24.0061 14.1095 24.4477 14.4447 24.0825L15.3945 23.1509L14.5858 23.9808L14.9125 23.8098L14.8216 23.886C13.3989 25.236 14.8179 24.1177 13.3472 25.4869ZM13.4846 25.4004C13.5762 25.3187 13.6583 25.2483 13.7258 25.1976C13.5936 25.327 13.5348 25.37 13.4846 25.4004ZM7.94827 31.1922L7.69043 31.4252L7.94827 31.1922ZM26.942 14.1898C26.9434 14.1428 27.704 13.2875 27.7493 13.3619L27.0443 14.1046L26.942 14.1898ZM9.85029 46.7545C9.75867 46.6665 9.66765 46.5768 9.57821 46.4856L9.53487 46.4237C9.59899 46.47 9.766 46.6591 9.85029 46.7545ZM12.3088 26.1773C12.4659 26.0384 12.5413 25.9821 12.5866 25.9559C12.4859 26.0471 12.3895 26.1279 12.3088 26.1773ZM10.0434 46.6629C10.1752 46.7604 10.3701 46.9033 10.4168 46.9044C10.6519 47.1383 10.7851 47.3343 11.0126 47.5842C10.752 47.3062 10.4344 47.0006 10.0434 46.6629ZM11.031 47.6048L11.0128 47.5842L11.031 47.6048Z" fill="#F16A50"/>
<path d="M26.722 14.2789L26.4916 14.4823L26.6212 14.386L26.076 14.9635C25.9942 15.0357 25.9137 15.1093 25.8344 15.1843C25.873 15.1502 25.9077 15.1287 25.9317 15.1177L25.7584 15.3042C25.2467 15.6873 24.084 16.7505 23.7248 17.0336C23.2717 17.43 22.7347 17.933 22.4124 18.2625C22.7144 17.9601 23.1296 17.573 23.0435 17.7274C22.464 18.3746 22.2689 18.7753 21.1165 19.7412L21.7412 19.1239L20.2048 20.3813C19.7698 20.9244 20.9716 19.7538 21.2148 19.6088C20.0582 20.6249 19.3293 21.7011 18.7073 22.0867C18.7055 22.226 18.7016 22.4595 17.9796 23.1625C18.4163 22.572 17.5 23.5378 17.8386 23.0338C17.5518 23.2398 17.0656 23.8506 16.9729 23.84L17.0684 23.8022C15.9571 25.1233 15.3852 25.3496 14.8064 25.8122C13.3159 27.2358 12.6892 27.9469 11.4852 29.1193C11.4848 29.2119 11.2877 29.661 10.8043 30.1311C10.5191 30.2897 9.41085 31.332 9.22002 31.3616C10.0418 30.4791 9.98738 30.7339 10.5181 30.2443C10.8601 29.7373 10.4734 30.1231 11.0052 29.495C10.5681 29.994 8.83814 31.5591 8.40269 32.1483L8.59533 31.979C7.82195 32.8422 7.8641 33.1954 6.37513 34.4345L5.67279 35.0339C5.71232 35.0106 5.72536 35.0164 5.74924 35.0068C5.21907 35.5415 5.04971 35.759 4.85646 35.9805C4.80561 36.0391 4.75356 36.0966 4.70034 36.1531C4.62829 36.229 4.5547 36.3034 4.47961 36.3764C4.30663 36.5453 4.07586 36.7591 3.71365 37.0826C3.82543 36.9828 3.77646 37.0487 3.88823 36.9487C3.74442 37.11 3.59517 37.2664 3.44074 37.4177C3.72549 37.7029 3.98115 37.9874 4.23138 38.2697L4.59921 38.6846L4.90744 39.0263C5.28489 39.2679 4.89981 38.8876 4.75633 38.6488C5.96556 39.7978 7.12744 41.1798 7.78041 41.9904L8.58249 42.7085C8.15788 42.2318 7.67567 41.6129 7.85426 41.7097C8.26022 42.1394 8.14744 42.0904 8.75346 42.6665C8.69507 42.5234 8.48617 42.2366 8.26142 41.9061C9.56015 43.0528 8.38343 42.3294 9.37373 43.0512C9.76002 43.433 9.92136 43.7175 9.91172 43.8108L10.6779 44.4369C10.6895 44.5793 11.5478 45.4391 12.1028 46.0098C12.1434 46.1065 11.5775 45.6282 11.3889 45.3903C11.3792 45.4835 11.9559 46.1045 12.3434 46.4874C12.6234 46.4905 14.8544 49.0199 14.5604 48.4044C16.2521 50.173 18.6776 52.6085 19.7656 53.8038C20.1818 54.1411 20.9542 54.9036 20.5572 54.3809C21.9557 55.768 22.5346 56.6248 23.9598 57.9645C24.092 58.0613 23.3339 57.3406 23.4292 57.3438C24.2806 58.299 25.1379 58.9235 26.5081 60.357C26.2737 60.1196 26.2334 60.0228 26.2149 59.9758C26.1673 59.9742 26.7437 60.5953 27.0854 60.9788C27.3019 61.17 26.8297 60.6919 26.962 60.7883C29.7473 63.4199 31.63 65.6624 34.3396 68.34C33.5658 67.5755 33.3655 67.1948 33.395 67.1492L34.153 67.8984C34.3986 68.2333 34.9667 68.7968 35.4072 69.3022C35.4826 69.3431 35.7322 69.554 35.5183 69.2985C36.3118 69.9939 36.8532 70.6146 37.4313 71.2828L37.8762 71.7948L37.933 71.8601L37.9669 71.9125C37.9902 71.9466 38.0171 71.9782 38.0285 72.0193C38.0654 72.0928 38.0843 72.1755 38.0913 72.2585C38.0973 72.3422 38.0891 72.4289 38.0628 72.5111C38.047 72.5496 38.0375 72.6008 38.0179 72.6207C38.01 72.6345 38.0033 72.649 37.998 72.6639L37.9938 72.6761L37.9767 72.6962L37.9426 72.7366L37.8738 72.8185L37.8652 72.8289L37.8639 72.8301C37.9117 72.7775 37.8766 72.8159 37.887 72.8044L37.8852 72.8056L37.8816 72.8082L37.8676 72.8185L37.8397 72.8398L37.7857 72.8857C37.764 72.8956 37.7426 72.9064 37.7217 72.9179C37.6763 72.949 37.6436 72.9494 37.6105 72.9669C37.6027 72.9775 37.5591 72.9817 37.5188 72.9859L37.3992 73L37.5344 72.9984C37.5529 72.9974 37.5866 72.9996 37.5987 72.9956C37.6282 72.9875 37.6585 72.9825 37.6892 72.9809L37.7556 72.9546C37.8065 72.942 37.8517 72.9104 37.9023 72.8775L37.9219 72.8655L37.9322 72.8596L37.937 72.8566L37.9384 72.8558L37.939 72.8554C37.9308 72.8645 37.9587 72.8343 37.9205 72.8761L37.9233 72.8731L37.9693 72.8261C38.0005 72.7939 38.0316 72.7618 38.0628 72.7297C38.1182 72.6518 38.1969 72.5085 38.2147 72.3563C38.2268 72.2025 38.1983 72.0482 38.1318 71.9087C38.0895 71.8434 38.0578 71.7858 38.002 71.7201L37.8481 71.5396L37.5306 71.1671L38.1435 71.6478L37.2529 70.5965C37.883 71.132 38.2821 71.7175 38.4049 71.7926C38.3917 71.7438 38.3534 71.69 38.3094 71.632L38.2418 71.5432L38.176 71.4701C38.0909 71.3746 38.0223 71.291 38.0365 71.2677C38.1838 71.4037 38.2892 71.4904 38.3885 71.6231C38.4395 71.6798 38.4686 71.7416 38.4951 71.799C38.5219 71.8561 38.5484 71.9077 38.5573 71.9639L38.5912 72.1245L38.5952 72.2934C38.6006 72.3522 38.5851 72.4139 38.5759 72.4821C38.5701 72.5508 38.5466 72.6223 38.5183 72.702C38.6163 72.5016 38.653 72.2306 38.5731 71.9559C38.5338 71.8203 38.4708 71.6798 38.3724 71.5595C38.35 71.5298 38.3241 71.4934 38.3024 71.4689L38.238 71.3965L38.1059 71.2499C37.7258 70.8319 37.3399 70.419 36.9483 70.0114L34.7494 67.7352C34.5766 67.5418 34.8726 67.9253 34.8906 67.9719C34.4187 67.494 34.0886 67.2537 33.513 66.6338C33.2002 66.2045 33.8413 66.8725 34.1433 67.1597C34.1546 67.0677 34.0027 66.9231 33.681 66.5884C33.5403 66.5862 31.8485 64.818 31.3396 64.4805C29.6016 62.7119 31.8003 64.5819 30.0523 62.9064L29.4599 62.4757C28.524 61.4248 27.2885 60.0903 26.1431 58.9867L26.3782 59.2253C26.5029 59.4162 26.2201 59.1771 26.0869 59.0793C25.2001 58.2663 24.5301 57.4101 23.9339 56.9758C23.0455 55.9266 21.4863 54.2548 20.4176 53.1075C20.013 52.9135 21.7797 54.6359 22.1772 55.16L21.1653 54.1546C21.7897 54.7771 21.9972 55.062 22.3129 55.4935C21.4061 54.6319 21.2058 54.2516 20.3913 53.3902C20.4284 53.4835 20.2986 53.3892 19.9099 53.005L19.8691 52.8267C19.8565 52.8253 19.8081 52.7878 19.6839 52.6733L18.2299 51.1455C18.577 51.4314 18.6527 51.3866 19.0402 51.7696C18.8616 51.6728 19.1814 52.0063 19.5695 52.3892C19.276 52.0077 19.9851 52.7257 20.0144 52.6804C19.2368 51.9123 18.2933 50.9571 17.8036 50.4333L17.5745 50.3327C16.819 49.615 16.0741 48.8048 15.5543 48.3255L15.6784 48.5161C14.7719 47.6551 13.94 46.7473 13.0901 46.0276C12.3721 45.1698 11.4372 44.1207 10.8669 43.4032C10.6036 42.9778 8.44222 41.2017 7.66664 40.201C7.59761 40.1502 8.21707 40.8708 8.49018 41.2039C7.88416 40.6276 7.51513 40.0576 7.24242 39.959C8.60296 41.2517 7.10155 39.9568 7.67667 40.5768C7.055 39.9564 6.41346 39.2885 6.13874 38.954C7.1467 39.9562 5.90035 38.4793 6.88383 39.5307C6.54189 39.1223 6.12489 38.6589 5.677 38.1878L5.24255 37.734C5.13515 37.6258 5.02467 37.5206 4.91125 37.4187L4.96924 37.3539C4.89419 37.3539 4.91647 37.2975 5.07861 37.1057C5.08242 37.1017 5.29934 36.9943 5.29553 36.9981C5.39566 36.889 5.27646 36.9754 5.17091 37.0457C5.06737 37.1143 4.97767 37.1667 5.21105 36.916C5.29593 36.8547 5.33606 36.8304 5.50683 36.6714C5.6588 36.5309 5.80859 36.3882 5.95613 36.2431L6.89948 35.2992C7.51995 34.6767 8.08624 34.1275 8.37219 34.0143C9.00089 33.2553 6.97794 35.262 7.94476 34.1372C7.27192 34.6817 6.50055 35.5887 6.21339 35.7034C6.83647 35.1335 6.35928 35.4146 6.74456 35.0303L7.46516 34.4201L7.32068 34.5699C8.52209 33.5382 10.2583 31.7374 11.7027 30.3307C13.001 29.2135 13.9602 28.5091 15.4042 27.0567C14.9244 27.4326 16.5627 25.8098 15.5547 26.626C16.1826 25.914 16.8996 25.3072 16.9504 25.3313C16.3713 25.9317 16.7541 25.5498 16.2741 26.063C16.656 25.7742 17.4298 25.002 17.7186 24.6562C17.5743 24.8062 17.6218 24.7418 17.5749 24.76C18.2509 24.0283 17.9586 24.4685 18.4883 23.9805C18.5867 23.7565 19.5986 22.8443 20.0321 22.3489L20.7988 21.7676C20.3678 22.0774 21.4251 21.1026 21.4769 20.9423C22.0037 20.5026 22.4843 20.1723 23.2065 19.4233C22.8703 19.6952 23.8354 18.7099 23.7876 18.6372C24.9942 17.3244 26.0465 16.7222 27.1576 15.447C27.1063 15.4699 26.8247 15.6706 27.1596 15.308C27.4522 15.051 27.9278 14.5647 28.2294 14.2783L28.2184 14.2858L28.2354 14.2723C28.3831 14.1322 28.4817 14.0494 28.4997 14.0605C29.064 13.6181 29.3847 13.4197 30.4286 12.483C30.4247 12.6242 29.559 13.4304 29.1736 13.7689L28.7913 14.0127C28.5956 14.4143 27.8768 14.8845 27.6836 15.146C28.4022 14.6759 30.0888 12.9417 31.1939 11.9941C30.6625 12.7131 29.3116 14.0842 28.108 15.2558L28.5914 14.6936L27.9665 15.3114L28.4965 14.639C27.9188 15.2385 27.3892 15.7265 26.8594 16.2608C27.4859 15.6417 27.634 15.305 27.2955 15.6711C26.6668 16.4301 26.5251 16.3477 25.997 16.8804C26.2869 16.58 26.6712 16.1959 26.3833 16.4032C25.4166 17.528 25.0787 17.7559 24.2128 18.7918C24.2158 18.5597 23.0084 19.9648 22.7708 20.0128L23.2041 19.5633L22.1947 20.4271C21.4215 21.3813 23.0584 19.76 21.8054 21.1361C20.5994 22.3565 20.5097 22.2047 19.5434 23.1462C19.9271 22.9011 20.7451 22.2055 21.5154 21.4369L21.0808 21.934C21.3679 21.7276 22.4281 20.6586 22.957 20.1253C21.9976 20.9222 23.3453 19.692 23.6847 19.233C23.8245 19.2257 23.2484 19.7769 23.9696 19.1665C23.3425 19.7865 23.2456 19.8719 22.4744 20.6869C24.1651 18.9486 24.2513 19.3789 25.6978 17.8326C24.9754 18.4902 25.8437 17.4981 25.8948 17.3836C26.2285 17.068 26.905 16.4276 27.1936 16.1744L27.0431 16.5136C27.9593 15.6859 28.0608 15.1831 29.1693 14.2783C29.3578 14.205 28.3004 15.1793 28.4933 15.0102C29.9351 13.698 30.2786 13.0509 31.4337 11.7614C31.5316 11.7212 31.578 11.7955 32.0576 11.4196C31.8655 11.4965 32.1537 11.152 31.6287 11.5897C32.0148 11.1584 32.5428 10.718 32.9271 10.3809C32.1067 11.262 33.3589 10.1159 33.5506 9.99382C33.9832 9.545 33.3585 10.0709 33.0698 10.3245C33.4095 9.95657 33.747 9.45396 34.0346 9.33901C33.9882 9.26511 32.8831 10.1665 32.2089 10.8046L32.6429 10.3544C32.3064 10.6271 32.2578 10.6927 31.8268 11.1393C32.2113 10.6648 32.117 10.6556 31.9735 10.7126C31.9257 10.7773 32.0193 10.6956 31.9739 10.7578C31.6346 11.1253 31.3458 11.3789 31.396 11.2656C30.9958 11.5017 31.8372 10.7267 32.0371 10.448L32.5946 9.92669L34.6982 8.35571C35.5159 7.60429 35.8075 7.19072 36.3597 6.5646L36.5917 6.47256C37.2696 5.78529 37.894 5.1217 37.3667 5.46993C37.3653 5.51754 37.2694 5.60181 37.1239 5.75282C37.0946 5.76317 37.0536 5.79026 37.0049 5.82791C36.9864 5.83807 36.9746 5.84186 36.9587 5.84943L38.2326 4.66393C36.8857 5.80022 38.0439 4.60017 37.7118 4.68444C38.0077 4.40893 38.3035 4.13342 38.5994 3.85792L38.7092 3.75572L38.8522 3.59535L38.8916 3.55053C38.8956 3.54714 38.9078 3.52982 38.9195 3.51268L38.9516 3.46447C38.9925 3.40172 39.026 3.34435 39.0521 3.29694C39.1049 3.20111 39.1288 3.14553 39.126 3.14852C39.0669 3.2924 38.9941 3.43034 38.9086 3.56049C38.9021 3.56989 38.8954 3.57925 38.8888 3.58858L38.854 3.63799C38.8373 3.6629 38.8206 3.68787 38.8041 3.71289L38.7997 3.72005L38.7991 3.72086L38.7413 3.7844L38.7401 3.78619L38.7377 3.78938L38.729 3.80074L38.7166 3.81907C38.7039 3.83919 38.7072 3.84337 38.722 3.8354C38.7294 3.83142 38.7397 3.82445 38.7525 3.81509L38.7625 3.80751L38.7633 3.80692L38.8233 3.74118L38.8246 3.73998L38.8272 3.73759L38.8322 3.7328L38.8542 3.7111C38.8864 3.67843 38.9229 3.64177 38.9678 3.59157C39.0517 3.47662 39.1378 3.33578 39.205 3.19374C39.25 3.07342 39.2927 2.94871 39.3206 2.83197C39.3405 2.71344 39.3531 2.60229 39.3611 2.51144C39.3445 2.45418 39.3321 2.39578 39.324 2.33673C39.3078 2.24809 39.2977 2.13075 39.2516 1.99788C39.2313 1.93114 39.208 1.85942 39.1815 1.78452C39.1482 1.7124 39.1095 1.6371 39.0674 1.55941C39.0256 1.47822 38.9746 1.40209 38.9153 1.33251C38.8856 1.29585 38.855 1.259 38.8243 1.22135L38.7766 1.16597L38.7706 1.15919L38.6999 1.09585L38.6925 1.08947L38.6777 1.07672L38.5557 0.972137C38.4718 0.910774 38.346 0.83448 38.2344 0.77771L38.1473 0.735069L38.0736 0.709183L37.9243 0.661568C37.825 0.627899 37.7235 0.612358 37.6219 0.602402C37.4199 0.572121 37.2212 0.595627 37.0406 0.623512C36.862 0.668533 36.6971 0.715553 36.5676 0.79245L36.6549 0.771332C36.5351 0.837471 36.3987 0.902809 36.2811 1.00899C36.2209 1.0584 36.1558 1.11438 36.0995 1.16697L36.0043 1.26558L35.5837 1.6885C35.2976 1.97063 35.0069 2.2481 34.7116 2.52081C34.7116 2.47459 33.9445 3.01067 33.562 3.2545C34.4104 2.36084 33.8636 2.84811 33.8907 2.73576C33.804 2.82938 33.6423 2.99174 33.6144 3.0017C33.4695 3.10629 33.7578 2.80688 33.7597 2.75966C34.2405 2.31442 34.7223 1.85683 35.1435 1.47534C35.3322 1.30296 35.525 1.13505 35.7218 0.971741L35.8743 0.849022C35.964 0.778107 36.0529 0.714752 36.1378 0.659775C36.3114 0.555183 36.4837 0.491837 36.6236 0.449013C36.4282 0.554192 36.2433 0.647423 36.0932 0.773521C36.0188 0.830894 35.9323 0.901016 35.8743 0.950615L35.7718 1.03568C35.6337 1.14824 35.4896 1.26359 35.3445 1.4365C35.4846 1.33098 35.6203 1.21992 35.7513 1.10361C35.7862 1.07233 35.8217 1.04086 35.8577 1.00839L35.9223 0.950226L36.0453 0.848228C36.2082 0.707588 36.4065 0.602203 36.617 0.508171C37.0755 0.328987 37.5812 0.307526 38.0534 0.447212C38.1158 0.465744 38.1782 0.485657 38.2404 0.507576C38.3967 0.576782 38.5464 0.659859 38.6877 0.755791C38.7098 0.770531 38.7162 0.775917 38.7208 0.779701L38.7395 0.79464L38.777 0.824516L38.8526 0.885284L38.8621 0.893051L38.8669 0.897034L38.9558 0.976921L38.9602 0.981697L38.9953 1.02055L39.0648 1.10003C39.1565 1.2084 39.246 1.31976 39.3118 1.45184L39.3792 1.55244C39.4298 1.62622 39.4727 1.70499 39.507 1.78751C39.5468 1.87695 39.5829 1.96959 39.6082 2.03971C39.6316 2.11003 39.6403 2.15884 39.6403 2.15884L39.6501 2.26263C39.6535 2.32896 39.666 2.42359 39.6585 2.53635C39.6494 2.66497 39.6331 2.79298 39.6098 2.91982C39.571 3.05967 39.5331 3.19494 39.4665 3.34853C39.404 3.47759 39.3317 3.60179 39.2504 3.72005L39.2106 3.77624C39.195 3.79815 39.1972 3.79277 39.1896 3.80233L39.0726 3.93301L38.9855 4.02843L38.9787 4.03461L38.9654 4.04696L38.9409 4.06927C38.9276 4.08141 38.9144 4.09364 38.9012 4.10593C38.8791 4.12625 38.8663 4.1376 38.8663 4.1376C38.9108 4.10115 38.9474 4.07346 38.9793 4.05075L38.9911 4.04259L38.9967 4.0386L38.9971 4.0384L39.079 3.94855L39.0798 3.94796L39.081 3.94676L39.0838 3.94457L39.1039 3.92844L39.1408 3.90014L39.2086 3.85253L39.2433 3.82784C39.2588 3.81409 39.2949 3.76787 39.3216 3.73341C39.38 3.65711 39.445 3.56308 39.514 3.43877L39.5652 3.34056L39.6009 3.25172C39.625 3.18896 39.6497 3.11864 39.674 3.03995C39.7561 2.73058 39.8439 2.24729 39.5995 1.61559C39.6405 1.6881 39.7374 1.88453 39.7755 2.17418C39.7928 2.3198 39.8112 2.48634 39.7882 2.66802C39.7798 2.76232 39.767 2.85619 39.7498 2.94931C39.7256 3.04453 39.6967 3.14255 39.6631 3.24116C39.6236 3.4065 39.4099 3.76608 39.3003 3.89775L39.2054 4.00632L39.091 4.13322L39.0645 4.15813L39.0116 4.20833C38.8747 4.33731 38.7416 4.47018 38.6124 4.60675L38.2797 4.78345C38.4212 4.72867 37.3611 5.79763 38.179 5.10239C38.4933 4.82043 38.8077 4.53855 39.1221 4.25673L39.1494 4.23243L39.1627 4.22047L39.1693 4.2147L39.1709 4.2131L39.2708 4.10355L39.2738 4.10035L39.3627 4.00294L39.4021 3.95971C39.4031 3.96091 39.4312 3.92166 39.4442 3.90353L39.4912 3.836C39.551 3.74755 39.5989 3.66647 39.6363 3.59914C39.7111 3.46228 39.7432 3.38379 39.7398 3.38937C39.744 3.38319 39.7125 3.47343 39.6489 3.6085C39.6127 3.68514 39.5733 3.76025 39.5307 3.83361L39.4215 4.0121L39.3357 4.15673L39.2307 4.27247L39.2293 4.27427L39.2269 4.27765L39.2221 4.28423L39.2132 4.29617C39.2078 4.30354 39.2028 4.31013 39.199 4.3157C39.1912 4.32646 39.1864 4.33244 39.1864 4.33244L39.2321 4.2886L39.2375 4.28323L39.3479 4.16231L39.3593 4.14915L39.3846 4.11928C39.4029 4.09796 39.4231 4.07366 39.4456 4.04756L39.4627 4.02724L39.4713 4.01688C39.4735 4.01469 39.4767 4.01091 39.488 3.99517C39.6074 3.83 39.7104 3.65374 39.7956 3.46886C39.8425 3.3553 39.8726 3.2551 39.9064 3.14114L39.9509 2.97242C39.9605 2.91525 39.9684 2.85747 39.9754 2.7993C40.0496 2.33295 39.9437 1.86182 39.8203 1.53212C39.7492 1.37036 39.6774 1.23927 39.626 1.14983C39.5763 1.05859 39.5375 1.01437 39.5375 1.01437L39.5584 1.04624C39.572 1.06616 39.5893 1.09624 39.6078 1.1339C39.6457 1.2084 39.6938 1.3096 39.7364 1.4118C39.7767 1.50428 39.8082 1.60033 39.8305 1.69866L39.8612 1.83193C39.8371 1.74229 39.8104 1.65563 39.7819 1.57256C39.7516 1.49049 39.7115 1.41399 39.6744 1.33888C39.6363 1.26418 39.5967 1.19286 39.5566 1.12493C39.5148 1.0584 39.4667 0.999031 39.4211 0.940063C39.375 0.881699 39.3284 0.826309 39.2821 0.77372L39.2474 0.734879L39.2301 0.71595L39.2257 0.711365L39.2235 0.708977L39.1081 0.605194L39.1041 0.601807L39.0734 0.576302C39.0326 0.543228 38.9943 0.512154 38.9586 0.482674C38.7553 0.332863 38.4465 0.168915 38.2894 0.12648C38.1174 0.0744858 37.9671 0.0306625 37.8338 0.0185089C37.5658 -0.0105743 37.3777 -0.00320435 37.231 0.0254822C37.0843 0.0517807 36.9782 0.0718994 36.8767 0.114136C36.7745 0.152779 36.6734 0.193817 36.5397 0.250786C36.4123 0.318916 36.2415 0.399399 36.035 0.551399C35.9803 0.593903 35.9264 0.637543 35.8735 0.682281L35.7862 0.757988L35.7413 0.798424L35.7202 0.819145L35.543 0.990662C35.3684 1.15487 35.1913 1.31651 35.0118 1.47554C34.3898 1.90743 33.8116 2.46144 32.7994 3.51148C33.5692 2.78894 32.9423 3.50072 33.2785 3.27483C32.5536 4.07187 32.2187 4.25116 31.7859 4.60835C31.6406 4.85059 31.5427 5.02788 32.2177 4.34359C32.4065 4.36152 31.3023 5.21693 31.3466 5.38447C29.0831 7.6252 29.1912 6.8409 26.6821 9.5962L26.8241 9.54042C25.0928 11.153 24.1761 12.165 22.5886 13.6739L21.4745 14.9968C21.7649 14.742 22.5822 14.0928 22.2916 14.486C22.776 13.7854 23.4463 13.1969 24.028 12.5017C24.1221 12.465 23.8817 12.7449 23.7858 12.8754C24.1719 12.4903 24.3164 12.2485 24.8465 11.76C24.8445 11.807 24.3148 12.3877 24.7482 11.9839L25.3753 11.2263C26.3379 10.3351 25.9964 10.9333 27.0575 9.81772C26.7938 9.95916 26.2911 10.2839 25.8535 10.6893C26.3395 10.1805 25.1513 11.3136 25.5705 10.8253C26.3796 10.2006 26.6556 9.78525 27.6681 8.89178C27.5433 8.99079 27.4962 9.00294 27.2552 9.23104L28.6047 7.81584C28.3141 8.20889 29.8087 6.73532 29.7577 6.94111C28.3115 8.44117 28.6988 7.96287 27.0581 9.67967C27.5528 9.22367 28.2475 8.69197 28.6089 8.47861C28.6205 8.46109 28.6424 8.43439 28.6928 8.3816C29.0277 8.20291 28.7859 8.484 28.9261 8.61329C28.0606 9.28144 27.6258 9.87051 26.6632 10.7162C26.4186 10.812 27.095 10.0998 27.5652 9.6713L26.7168 10.416L26.9082 10.2936L24.9045 12.332C25.2928 11.9543 25.4664 11.8674 25.6992 11.7003C25.4403 11.963 25.2007 12.2399 24.9465 12.5348C24.9338 12.4071 24.8473 12.3939 24.5933 12.6485C23.305 13.9609 22.6428 14.7444 22.2418 15.3026L22.0849 15.4484C22.2312 15.1594 21.0278 16.2393 20.5494 16.5674C20.6443 16.6216 19.9217 17.2796 19.5838 17.6912C19.2974 17.8045 19.4459 17.4216 19.8338 16.8973C20.795 16.0991 20.4075 16.4851 20.9361 16.1817L22.4261 14.85L22.0412 15.096C22.7174 14.3645 23.4866 13.7804 23.3457 13.7436C22.9129 14.0551 22.3326 14.703 21.9025 15.0116L22.3372 14.5151C21.4249 15.2468 21.9988 15.0185 20.9393 15.949C21.2309 15.5092 20.8434 16.0335 20.365 16.4076C20.6554 16.0142 22.1445 14.6839 21.7155 14.8538C21.1402 15.3134 20.1198 16.7379 19.3046 17.2925L19.3528 17.2736C18.3561 18.2964 17.9265 18.5768 17.5006 18.9073C17.1113 19.3769 16.4572 19.9096 15.985 20.3692L16.0339 20.3951L15.3589 21.0341C15.741 20.7901 16.1299 20.2652 16.7062 19.7125L16.7054 19.8516C17.2757 19.1213 17.837 18.8137 18.4032 18.3705C17.6058 19.0422 16.339 20.4534 16.0299 20.4903L15.6442 21.0126L15.4006 21.204C15.1137 21.5937 15.5433 21.3315 16.2178 20.6933C16.3145 20.5622 16.3632 20.4968 16.3139 20.5168C16.6508 20.244 16.9857 20.0189 17.7093 19.2685L17.2779 19.6239C18.1939 18.7045 19.0584 17.8997 19.4421 17.6545C18.1414 19.0036 16.8396 20.3078 15.5879 21.5443C15.0623 21.7539 14.5369 22.0999 14.203 22.1411C13.3381 22.9459 12.1805 24.0554 11.5064 24.8309L11.6022 24.7932C11.2969 25.1223 10.9749 25.4356 10.6373 25.7319C10.3006 26.1425 10.9715 25.5536 10.7309 25.8339L9.48169 26.9766C9.62196 26.9688 10.6319 25.9666 11.1163 25.4951C11.0202 25.5795 10.8266 25.7499 10.8763 25.6827C11.4069 25.102 12.5588 24.1823 12.7068 23.845C12.9954 23.5918 12.0842 24.3229 12.9992 23.4045C13.5794 22.7571 13.8657 22.6433 13.9588 22.6079C14.0064 22.6352 13.0432 23.6187 13.4277 23.327C12.9434 23.7984 12.704 23.94 12.1269 24.5847C12.6067 24.1173 13.3283 23.552 13.5232 23.243C14.5329 22.3794 14.5741 22.688 14.1406 23.1376C14.191 22.978 12.3585 24.7719 13.5188 23.4772C12.8943 23.9563 11.8825 24.9596 11.1141 25.6347L11.1613 25.616L10.2446 26.4909C10.3909 26.3849 10.6795 26.1315 10.7256 26.1598L9.37995 27.2961C10.1483 26.6674 8.99226 27.7738 8.70309 28.1203C8.51246 28.1958 7.98409 28.6368 8.41794 28.141C8.90095 27.579 8.75446 27.8689 9.23587 27.3995L8.46991 27.9802L8.42075 28.0466L7.93995 28.3765C7.0251 29.2952 8.51406 28.1484 7.26269 29.2468L7.31526 28.9944C5.96516 30.3642 4.32589 32.217 3.31472 33.1282C3.6382 32.9211 3.8477 32.8964 3.53666 33.3139C3.93519 32.8838 4.77439 32.0577 5.38041 31.475C5.47733 31.3435 4.51593 32.0963 3.88964 32.7613C4.03834 32.2856 5.61941 31.2423 5.5281 31.0005C7.12061 29.3032 6.92095 29.9379 8.2241 28.449C8.31821 28.5039 8.65895 28.0898 8.79861 28.082C8.50583 28.6151 6.92115 29.9377 6.05446 30.8829C6.14897 30.8001 6.33921 30.6333 6.38837 30.6126C5.76028 31.2798 5.47493 31.5298 4.99312 31.9531L5.04148 31.8876C4.17499 32.6027 4.60643 32.4304 4.17218 32.9266C3.98014 33.0954 3.35245 33.7613 3.40201 33.6032L2.62743 34.5132L2.58469 34.3898C2.10288 34.8586 2.05352 35.0168 1.5703 35.3957L1.47559 35.3415L2.63425 34.1396C2.00937 34.7114 2.39526 34.2349 1.7198 34.8743C2.12917 34.549 2.00917 34.6887 1.78642 34.9273C1.67505 35.0468 1.538 35.1907 1.42863 35.3136C1.38113 35.3663 1.33555 35.4206 1.29197 35.4765C1.27727 35.4959 1.26348 35.5159 1.25064 35.5365C1.23735 35.553 1.22673 35.5715 1.21913 35.5913C1.10495 35.6933 0.990572 35.7953 0.883214 35.9021L0.659265 36.1369L0.54629 36.2559C0.508565 36.2957 0.484484 36.3415 0.452778 36.3844L0.535454 36.274L0.637595 36.173L0.549499 36.2937L0.486689 36.41C0.447157 36.4842 0.402811 36.5473 0.380537 36.6172L0.299866 36.8081C0.277191 36.8704 0.262544 36.9342 0.242678 36.9973C0.197327 37.123 0.185287 37.2609 0.167026 37.425C0.169634 37.5073 0.174449 37.597 0.183279 37.696C0.197325 37.7942 0.227625 37.8996 0.255318 38.0181L0.170036 37.7211C0.154183 37.6219 0.140537 37.5244 0.128497 37.428C0.127092 37.3318 0.131306 37.2366 0.135319 37.1418C0.143346 37.0475 0.165822 36.9565 0.180872 36.8637C0.225621 36.6824 0.28582 36.5013 0.38776 36.3341C0.428095 36.2457 0.497527 36.1666 0.56435 36.0835L0.773446 35.8286L1.16194 35.4554C1.24943 35.3757 1.33452 35.3016 1.43204 35.2188L1.20629 35.4108C1.1774 35.4341 1.08609 35.5196 1.01144 35.5885L0.761608 35.8208C0.586424 36.0204 0.376925 36.2292 0.249099 36.473C0.128496 36.7216 0.0369909 36.9896 0.0129106 37.2493C-0.0480928 37.7725 0.122678 38.201 0.199936 38.3844C0.308698 38.6558 0.533848 38.86 0.715253 39.0663C0.893247 39.2586 1.1178 39.5038 1.19847 39.5638C1.42241 39.7636 1.64736 39.9544 1.89057 40.1873C1.44709 39.7174 1.58395 39.7409 1.59539 39.6604C1.60101 39.6201 1.57532 39.554 1.43004 39.3873L1.01445 38.9297L0.646423 38.535C0.586623 38.4567 0.538866 38.3673 0.479267 38.2763C0.437327 38.1765 0.385754 38.0729 0.349834 37.9569C0.34542 38.0306 0.466624 38.3259 0.553915 38.4175C0.378128 38.2659 0.170638 37.8189 0.222812 37.2955C0.239869 37.035 0.340602 36.773 0.464214 36.5395C0.597258 36.3114 0.80154 36.1256 0.961674 35.9543L1.32689 35.6335C1.27753 35.7315 1.39572 35.6467 1.41238 35.6566C1.42261 35.6596 1.43425 35.6596 1.39131 35.7138C1.34556 35.7706 1.25505 35.8716 1.09472 36.0431L0.875789 36.3158C0.940806 36.2218 0.91532 36.2252 0.825018 36.3037C0.802744 36.3236 0.775052 36.3475 0.746356 36.377L0.663882 36.4846C0.634986 36.5254 0.598663 36.5678 0.569365 36.6192C0.54368 36.6728 0.515987 36.7298 0.486689 36.7901C0.384147 37.0354 0.305688 37.3679 0.364284 37.7143C0.421675 38.0603 0.574184 38.399 0.849502 38.6438L0.839869 38.5149C0.833247 38.4532 0.838664 38.3908 0.841072 38.3896C0.83425 38.3928 0.919936 38.4812 1.04696 38.6137L1.50448 39.0906L2.00054 39.5693L1.91465 39.4729C2.35833 39.763 2.94368 40.5238 3.66208 41.1483C4.10636 41.6728 6.0057 43.492 5.07981 42.8173C5.75807 43.3444 6.19513 43.9643 6.83908 44.6351L5.96857 43.8663C6.85674 44.9152 6.63098 44.5831 7.27533 45.4885C7.3861 45.5347 7.58597 45.6805 7.46175 45.4901C8.77433 46.7808 10.6731 48.5998 11.3431 49.4562C12.269 50.3652 12.5521 50.371 13.7897 51.7077C14.0451 51.9942 13.4678 51.6063 14.3568 52.4219C14.423 52.4703 13.6203 51.5176 14.5636 52.4727C15.1516 53.236 16.2069 54.0048 17.011 54.959C17.5097 55.3891 18.3057 56.2041 18.2092 55.9656C17.4547 55.2493 16.425 54.1974 16.3002 54.0054C16.359 54.1494 15.7335 53.5257 16.2442 54.0988C15.0743 53.045 15.5644 53.3358 14.5265 52.379C14.4862 52.282 15.1203 52.8111 15.3091 53.0496C15.4117 52.9571 13.3827 51.0435 14.3899 51.8103C15.4679 52.8637 15.5814 53.3815 16.6113 54.1994C16.2992 53.7715 15.6677 53.2446 15.2985 52.6741L16.0994 53.3912L16.5816 54.0102L16.5629 53.9632C17.9977 55.2098 17.7065 55.2987 18.8612 56.5422C18.096 55.9172 18.8529 56.8707 18.2869 56.3911C19.0793 57.2025 19.6833 57.7765 19.7867 57.6846C18.3607 56.1107 19.8047 57.4972 18.5102 56.0182C18.7737 56.2103 18.322 55.5471 19.1624 56.3599C20.0273 57.3571 18.8012 56.1633 19.7012 57.1207C19.765 57.1667 19.831 57.2147 19.8129 57.1681C20.1908 57.6442 20.3315 57.6466 20.7942 58.2175L20.6909 58.0759C21.3898 58.652 21.3232 58.8375 21.9388 59.32C21.6459 59.1733 22.2491 59.7463 22.5451 60.1301C21.9593 59.6032 21.5531 59.4068 20.4575 58.3078C20.3818 58.1187 20.4942 58.1669 20.0696 57.6902L20.7784 58.408C20.6333 58.2452 20.5305 58.1137 20.4005 57.9617L19.6829 57.3087C20.5139 58.2149 20.0527 57.8789 20.3634 58.306C21.1863 59.0731 21.0059 58.9751 21.5265 59.4546C21.5602 59.321 23.2087 60.8389 24.1815 61.6971L23.7519 61.2774C23.1376 60.5622 24.2812 61.6635 24.329 61.6651L24.7733 62.1896C24.6874 62.093 24.5806 61.9478 24.8 62.1418C25.4427 62.8107 25.3209 62.8558 25.9623 63.5239C26.0582 63.5267 25.5728 62.9054 26.006 63.2869C26.1872 63.3865 26.7439 63.7251 27.5758 64.6327C27.62 64.7118 27.8365 64.9465 28.0912 65.2144C28.0572 65.1758 28.0131 65.1286 28 65.1088L28.6308 65.6346C28.2158 65.0654 27.5941 64.6793 27.1767 64.1074L27.2098 63.9909C26.8235 63.6068 26.3311 63.0534 26.1286 62.7751C26.7308 63.3474 26.8352 63.4902 27.4785 64.16C27.6184 64.2044 27.1897 63.7086 27.1279 63.6371L27.1831 63.7773C26.3349 63.059 26.0802 62.5392 25.0879 61.5818C24.9372 61.4382 25.0219 61.5332 25.0406 61.58C24.3214 60.7212 23.4445 60.0491 22.7706 59.1895L22.9821 59.4779L20.5865 56.7471L20.6076 56.7099C20.7388 56.8053 20.3533 56.4246 20.1352 56.2318L20.1358 56.2332L18.8186 54.7399C19.0008 54.8776 19.1749 55.0256 19.34 55.1831C19.4662 55.3768 20.4356 56.283 20.2285 56.2324C20.7103 56.6173 21.3435 57.3798 21.6922 57.6675C21.0603 57.1398 22.0237 58.1428 22.0825 58.2868C22.3275 58.4321 22.9408 59.1464 22.9311 59.005C23.0632 59.1018 22.6012 58.7652 22.3936 58.4801C21.8459 57.8137 23.5637 59.5337 22.8633 58.7217C23.7822 59.7263 25.0749 60.9694 26.0096 62.0187L25.4251 61.4922C25.8776 61.9221 26.9104 62.9769 27.0208 63.0229C26.6995 62.6886 26.3142 62.3077 25.9067 61.8768C25.961 61.7822 26.9174 62.8813 27.0105 62.8819L28.109 64.2182L27.5696 63.6909C27.8614 64.0707 29.0355 65.1274 29.8755 65.9405C29.5021 65.3664 28.6265 64.6955 27.795 63.7881C27.1998 63.1201 28.2852 64.0787 27.7097 63.4586C27.8893 63.5895 28.278 63.9809 28.4453 64.198L28.7004 64.4146C28.2583 63.7907 27.0374 62.6199 26.3186 61.7473C26.3788 61.8268 26.4294 61.898 26.4406 61.9308C25.7895 61.3561 25.1662 60.7344 24.5913 60.1146C24.9378 60.4003 25.0434 60.5447 25.214 60.7356C25.2595 60.7352 24.7033 60.1632 24.5146 59.9254C25.0998 60.4523 24.6736 59.9742 25.042 60.3092C24.7008 59.9266 24.4 59.6409 23.9477 59.211C23.6828 59.018 24.089 59.4476 23.9961 59.4469C23.5679 58.9668 23.249 58.8693 22.6352 58.154C23.5422 59.016 22.5015 57.8223 22.2268 57.488L22.3789 57.6324C22.1515 57.2994 21.9148 57.0601 21.6709 56.9161C22.0121 57.2988 22.3789 57.6324 22.2206 57.5844C21.983 57.3438 21.7462 57.1039 21.4907 56.8179L21.6982 57.1025L20.5171 55.9073C20.3768 55.6716 20.1298 55.2905 20.0363 55.0556C19.7062 54.8152 19.3446 54.3833 19.0899 54.0972L19.1959 54.2427C18.6284 53.7616 17.4926 52.5653 17.4368 52.4247C17.0228 52.0896 19.8202 55.3331 17.2034 52.6563C16.1941 51.6533 16.7114 51.8959 16.1822 51.2768C16.1822 51.2768 16.2009 51.3228 16.1347 51.275C15.6828 50.8461 15.6904 50.7505 15.3493 50.3678C15.635 50.6102 16.0201 50.9905 16.1238 51.133C16.048 50.9441 15.1984 50.2242 14.9048 49.8433C15.2561 50.3672 14.0168 49.0287 14.3128 49.4122C13.3771 48.596 12.507 47.5938 12.1105 47.0708C11.4031 46.5888 11.0792 46.018 10.06 45.1078C10.2121 45.2522 10.4656 45.5367 10.6855 45.7315C11.1669 46.3491 9.64564 44.7723 10.4307 45.6793C10.2601 45.4881 10.4551 45.6295 10.6303 45.8254C10.9482 46.1567 11.2241 46.4919 11.1103 46.4423L10.2593 45.7208L10.5177 46.011L9.23446 44.908C9.216 44.8616 9.34584 44.9556 9.41226 45.004C7.9859 43.6631 6.44617 42.0394 5.21807 40.8431C5.20302 40.6313 4.47559 39.867 3.64422 39.0183L3.01071 38.3735L2.69706 38.0529L2.57867 37.9298L2.51144 37.8563C2.42375 37.7613 2.34047 37.6703 2.32341 37.5631C2.30174 37.4593 2.32884 37.3619 2.3766 37.2983C2.30676 37.3641 2.24475 37.4326 2.18857 37.4703C2.13097 37.5081 2.07338 37.5139 2.03285 37.4473C2.02723 37.536 2.02442 37.6842 2.11492 37.8308C2.15887 37.9039 2.22188 37.976 2.2893 38.0557C2.32422 38.0958 2.35853 38.1334 2.40047 38.1761C2.46007 38.2366 2.52208 38.2968 2.58629 38.3565C2.69767 38.4038 3.34763 38.9775 2.98884 38.549C4.34014 39.9353 2.71593 38.4508 3.04763 38.9265L2.67077 38.5382L2.33506 38.1832C2.19258 38.0147 2.03746 37.881 1.96964 37.7079C1.93864 37.6262 1.9255 37.5388 1.93111 37.4516C1.93671 37.3645 1.96092 37.2795 2.00214 37.2023C2.0778 37.0517 2.21947 36.9613 2.33265 36.8708L2.48034 36.7567L2.71231 36.5565L3.17245 36.1501L3.17325 36.1027L3.94322 35.4263C3.36348 36.0282 3.50516 36.1104 4.22997 35.3128L4.13145 35.3996C4.52014 34.9201 5.48255 34.0751 6.156 33.3918L6.68276 32.998C7.35721 32.3135 7.2657 32.1643 7.4148 31.8724C8.47513 30.8028 9.19152 30.2887 10.0097 29.5936C10.3002 29.2004 11.8885 27.5987 10.9763 28.3773C11.9868 27.4665 12.0751 27.9404 13.5719 26.1431L13.0919 26.5186C14.6834 24.9598 17.0393 22.822 17.7141 22.0457C16.9482 22.4431 19.5027 19.9006 19.6045 19.4436C19.5669 19.5619 20.1748 18.9858 20.2831 18.9217C20.3923 18.7717 20.5885 18.5362 20.8556 18.3448C20.2751 18.9926 21.4751 18.0993 20.2243 19.1976C20.9437 18.7274 21.8082 18.0599 23.1087 16.7567L23.0142 16.7019L22.003 17.7509C22.0524 17.5925 21.5243 18.1248 21.2806 18.3161C23.1619 16.3652 20.8538 18.3922 22.8298 16.4501C23.0682 16.3098 22.9251 16.4122 23.4553 15.9237C23.2125 16.1598 23.1176 16.1516 23.5039 15.7662L23.9355 15.4562C24.4974 14.6508 22.7178 16.5038 23.2159 15.8351C22.398 16.5305 21.0517 17.8047 21.2012 17.4666C22.4064 16.2014 22.4953 16.5369 23.7483 15.207L23.8454 15.0295C24.329 14.6044 24.4685 14.5966 24.758 14.3882C24.7574 14.3428 24.8558 14.2105 25.1421 13.9133C26.008 13.2446 26.538 12.7559 27.3533 12.1551C25.3841 13.9534 25.8103 13.8318 23.789 15.699C24.1259 15.4263 25.5222 14.0852 25.7098 14.1042L25.6165 14.0478C26.2897 13.4567 26.9624 12.8655 27.7346 12.0503L27.206 12.4911C28.3141 11.4947 28.8479 10.6359 29.8055 9.93227C29.5179 10.2309 29.2767 10.466 29.0837 10.6349C29.6606 10.1283 30.335 9.4438 30.9132 8.84497L32.2589 7.75429C32.2111 7.72799 32.9833 6.95684 32.5504 7.269C33.3736 6.33869 33.8999 6.03768 34.4269 5.55141C35.2486 4.57766 33.611 6.29108 33.4193 6.27614C34.6263 5.00935 35.9734 3.7338 36.7414 3.10529C36.5032 3.37164 36.3932 3.50671 36.4241 3.51189C36.4382 3.45113 36.9447 2.96046 37.2228 2.68296L37.463 2.54092L37.473 2.52937L37.4756 2.52658L37.4498 2.50108H37.4494L37.448 2.50009L37.4437 2.49611C37.4399 2.49191 37.4364 2.48737 37.4333 2.48255C37.4329 2.48156 37.4351 2.48654 37.4335 2.48375C37.4293 2.47539 37.4351 2.48873 37.4321 2.48116C37.4291 2.4706 37.4241 2.46072 37.4173 2.45208C37.4151 2.45009 37.4054 2.43694 37.4018 2.43793C37.3988 2.43794 37.3958 2.43733 37.393 2.43613L37.386 2.43336C37.3801 2.43634 37.3874 2.422 37.3687 2.43913C37.3777 2.42957 37.3801 2.42797 37.3799 2.42937L37.3829 2.42897L37.3876 2.42698C37.3912 2.42678 37.3892 2.41742 37.3946 2.42061C37.4048 2.42778 37.4044 2.41423 37.4144 2.42538C37.4257 2.421 37.4383 2.45029 37.4425 2.45029C37.4427 2.45626 37.4427 2.45965 37.4437 2.46004C37.4413 2.46004 37.4518 2.45965 37.4395 2.45825C37.4183 2.45484 37.3987 2.4447 37.3837 2.42937L37.3729 2.41682C37.3717 2.41443 37.3607 2.40128 37.3743 2.41343L37.4738 2.49431L37.524 2.53355L37.5244 2.53375L37.4514 2.46822L37.4512 2.46841L37.451 2.46881L37.4508 2.46921L37.4506 2.47021V2.47121C37.4514 2.472 37.4546 2.4706 37.4608 2.46822C37.461 2.47021 37.4761 2.46403 37.4877 2.46463C37.4957 2.45746 37.4871 2.45766 37.4953 2.4481C37.4983 2.44073 37.4895 2.44012 37.4937 2.42857L37.4941 2.42658L37.4943 2.42558L37.4945 2.42519C37.525 2.45287 37.4259 2.36362 37.5633 2.48694L37.5627 2.48634L37.5601 2.48415L37.5401 2.46662L37.5003 2.43156L37.4197 2.36163L37.4106 2.35387L37.4132 2.35865L37.4195 2.36761C37.4238 2.3732 37.4291 2.37811 37.4349 2.38215C37.4456 2.3894 37.458 2.39398 37.4708 2.3955C37.4583 2.3894 37.4445 2.38641 37.4306 2.38679C37.4167 2.38718 37.4031 2.39091 37.391 2.39769C37.3853 2.39968 37.3771 2.39928 37.3753 2.40865C37.3741 2.40997 37.3727 2.41105 37.3711 2.4118C37.3694 2.41255 37.3677 2.41297 37.3659 2.41303C37.3673 2.40884 37.355 2.4212 37.343 2.43336L37.3095 2.46682L37.0558 2.71783C36.8965 2.87321 36.7587 3.0033 36.6505 3.09214C36.8707 2.88673 37.0866 2.67679 37.2981 2.46244L37.3518 2.40746C37.3595 2.40168 37.3595 2.40427 37.3627 2.40148C37.3677 2.39889 37.3681 2.38972 37.3719 2.38535C37.3775 2.38454 37.3813 2.38136 37.3843 2.37538C37.3857 2.36581 37.3932 2.369 37.3972 2.36522C37.4022 2.36362 37.405 2.35248 37.411 2.35188C37.4225 2.35427 37.4333 2.33275 37.4461 2.33694C37.4536 2.33475 37.4606 2.33125 37.4668 2.32658C37.4732 2.32854 37.4801 2.32861 37.4865 2.32677C37.5182 2.32319 37.4756 2.31562 37.4756 2.28812L37.4744 2.27797C37.474 2.27399 37.4885 2.28673 37.4949 2.29031L37.5449 2.32498L37.5952 2.36004L37.6207 2.37757L37.6334 2.38654L37.6398 2.39092L37.6414 2.39212C37.5226 2.28554 37.6085 2.36283 37.582 2.33873L37.5822 2.33893L37.5828 2.33972C37.5887 2.3468 37.5959 2.35263 37.6041 2.35686C37.6149 2.36064 37.6243 2.36602 37.6272 2.37538C37.6649 2.39889 37.6735 2.4483 37.6817 2.50128C37.6886 2.52519 37.6725 2.56622 37.6741 2.57738C37.6745 2.5732 37.6773 2.56961 37.6819 2.56762C37.6847 2.5664 37.6877 2.56573 37.6908 2.56563H37.6962C37.6986 2.56543 37.6882 2.57639 37.6845 2.58117L37.6219 2.65746L37.5898 2.6963L37.5736 2.71623L37.5696 2.72102L37.6185 2.66703L37.6173 2.66822L37.6151 2.67061L37.6059 2.67958C37.3826 2.89923 37.1564 3.11586 36.9272 3.32941C36.9258 3.37701 37.3111 3.08438 36.9248 3.46906C36.0104 4.3412 36.5905 3.60212 36.2564 3.82643C36.6166 3.49873 36.8696 3.24812 37.0749 3.02182C37.1775 2.90867 37.2682 2.8017 37.3546 2.69412L37.4817 2.53217L37.4819 2.53176L37.4191 2.60089L37.4195 2.60029L37.4203 2.59869L37.4221 2.59591L37.4255 2.59053L37.4323 2.57938L37.4458 2.55746L37.4726 2.51283C37.4885 2.48495 37.5136 2.44849 37.5222 2.42658C37.5318 2.41762 37.4728 2.46542 37.4229 2.50487C37.4103 2.515 37.3977 2.52503 37.3849 2.53495L37.3673 2.5489L37.3631 2.55228L37.3621 2.55308L37.3615 2.55347L37.3613 2.55368L37.3611 2.55387L37.4293 2.47897L37.4271 2.48037L37.4189 2.48554L37.3839 2.50806C37.3765 2.55607 36.9443 2.98736 36.8363 3.13378L36.6443 3.16466C36.7847 3.20211 36.1593 3.95752 35.5809 4.46551C36.0672 3.85472 35.9217 4.00573 35.97 3.75632C35.1076 4.42168 35.1997 4.70835 34.2391 5.46017C34.332 5.42451 35.1033 4.70137 34.4773 5.36634C33.9449 5.90262 33.9469 5.76277 33.565 6.09805C34.0444 5.76955 33.9954 5.92752 34.5224 5.5789C35.4848 4.6422 34.9059 5.19621 35.8697 4.30374L35.1441 5.14861C35.9634 4.35913 35.8161 4.64998 35.9108 4.61233C34.6075 6.05601 34.7592 5.53209 33.8915 6.43212C33.4129 6.80624 34.7118 5.59663 33.9894 6.20781C33.1707 7.04211 33.7518 6.34766 32.7884 7.24013L32.9784 7.1192C32.7378 7.44571 32.4021 7.67122 32.0652 7.99055C31.6805 8.32782 32.2177 7.32758 30.7231 8.80115C30.8168 8.74915 30.8568 8.7356 30.8654 8.74417L32.9413 7.92023C31.2749 9.57246 29.6289 11.2448 28.0035 12.9368C27.7137 13.4661 29.3512 11.7981 29.2992 11.9588L30.0714 11.1427C29.975 11.1359 28.3855 12.7848 29.0138 11.9796C30.4584 10.6191 31.0378 9.92609 32.4796 8.70612C32.1868 9.23921 30.6993 10.4305 29.9251 11.3865C30.2819 11.0166 30.6031 10.7241 30.9196 10.4446L28.3544 13.093L28.1162 13.2708C28.7281 12.6362 29.1503 12.1963 29.2017 12.1367C28.3831 12.9706 27.6162 13.5978 27.4717 13.5639L27.616 13.4145L27.2883 13.6842C27.0986 13.8824 26.9098 14.0812 26.722 14.2789ZM34.1335 67.8727C34.0916 67.8141 34.0619 67.7647 34.045 67.7233C34.0625 67.7665 34.0201 67.741 34.1335 67.8727ZM33.8303 4.30434L35.4637 2.63316L36.2706 1.80643L36.4707 1.60224C36.4984 1.57097 36.5496 1.52794 36.5971 1.48869C36.6463 1.45124 36.6896 1.40522 36.7452 1.37693C36.9563 1.24207 37.2047 1.18191 37.4506 1.17573C37.2292 1.19685 37.0155 1.25302 36.8435 1.36916C36.7524 1.41817 36.679 1.4871 36.6094 1.55602C36.5303 1.62694 36.4996 1.67954 36.4458 1.7397L35.9199 2.37877C35.611 2.75926 35.3959 3.03876 35.3349 3.1539C35.2739 3.26904 35.3674 3.21964 35.676 2.94254C35.8304 2.80408 36.0385 2.60866 36.3078 2.34849L36.7589 1.90863C36.8008 1.86401 36.8423 1.83392 36.8845 1.79986L36.9483 1.74827L37.0233 1.71001L37.0996 1.66978L37.1845 1.64527C37.2134 1.6375 37.2417 1.62654 37.2716 1.62057L37.3639 1.61221C37.3649 1.59966 37.6227 1.63591 37.6195 1.64487C37.4935 1.63073 37.3394 1.62336 37.1845 1.68232C37.1038 1.70045 37.032 1.75145 36.9561 1.79468L36.8522 1.88134C36.8158 1.91162 36.7755 1.95684 36.7366 1.99449C36.4026 2.32951 36.0646 2.66042 35.7224 2.98716C35.2134 3.38551 34.7012 3.77996 34.1861 4.17048L33.4306 4.73803C33.2333 4.88345 33.1079 4.9719 33.1077 4.96214C33.253 4.7199 33.5903 4.492 33.9288 4.12605L33.8303 4.30434ZM33.3395 5.3783C32.7324 6.02015 32.8358 5.83947 32.7035 5.90122L33.3756 5.26056C33.3011 5.352 33.2724 5.40539 33.3395 5.3783ZM32.7059 5.82911C32.7756 5.75839 32.834 5.69704 32.8607 5.66097L32.7059 5.82911ZM32.239 9.07665L32.3054 9.0149L31.8623 9.4711C31.9167 9.40575 32.0269 9.28782 32.239 9.07665ZM33.4249 7.728L33.6383 7.64412L33.2227 8.07163C33.2409 7.99533 33.2652 7.92083 33.4249 7.728ZM37.3025 3.4579C37.3862 3.41308 37.5031 3.32622 37.6338 3.22144L37.8377 3.05409L37.89 3.01027L37.9163 2.98835L37.9294 2.9772L37.9298 2.9768C37.9209 2.98676 37.9504 2.95449 37.9099 2.99871L37.9105 2.99792L37.9121 2.99632L37.9151 2.99313L37.9211 2.98716L38.0163 2.88954C38.0558 2.85329 38.0618 2.83397 38.0756 2.81345C38.0887 2.79193 38.1066 2.7754 38.1208 2.75129C38.1407 2.69591 38.1772 2.64711 38.1882 2.5983C38.2013 2.55029 38.2197 2.50845 38.2328 2.47578C38.2412 2.44312 38.253 2.42001 38.2681 2.41084C38.2805 2.37678 38.2972 2.41244 38.3108 2.49093L38.3074 2.63595C38.3006 2.69093 38.2803 2.7501 38.2667 2.81285C38.2528 2.84412 38.2358 2.87302 38.2207 2.90389C38.2043 2.93437 38.1956 2.96584 38.1649 2.99812L38.0863 3.09554L38.0664 3.12003C38.0614 3.12511 38.0564 3.13022 38.0514 3.13537L38.0064 3.18099C37.8862 3.30251 37.7626 3.42802 37.6352 3.5573C37.6133 3.55332 37.5499 3.59216 37.453 3.66528C37.696 3.40192 37.8437 3.21127 37.6857 3.25908C37.1518 4.02684 37.0149 3.75592 36.3391 4.48802C36.0513 4.64878 37.0631 3.64536 37.3025 3.4579ZM16.8178 53.1922C16.8456 53.2044 16.9345 53.253 17.0564 53.3245L16.6026 52.7866C15.6954 51.9244 14.8558 51.3457 14.1667 50.4427C13.765 50.0989 13.5061 49.9582 13.2667 49.8162C13.4533 49.9945 13.6293 50.16 13.7794 50.2941C15.8588 52.6788 15.1181 51.2848 16.8178 53.1922ZM6.45198 43.2137C6.53787 43.3101 6.55633 43.3571 6.55633 43.3571C4.73626 41.225 3.15017 39.5562 2.07438 38.5008C2.34669 38.642 3.35646 39.5446 3.83887 39.9702L3.50917 39.4958L3.19894 39.3034L2.56522 38.5408C2.81104 38.686 3.3667 39.2582 3.78329 39.5958C3.80215 39.6424 4.9273 40.931 5.22028 41.3124L4.20108 40.4022C4.48322 40.6413 5.75024 41.933 6.24048 42.4571C6.21319 42.5039 5.27867 41.6895 5.24877 41.4999C5.08944 41.4507 6.10041 42.4557 5.40168 41.8792C6.10102 42.6902 7.3562 43.8388 7.94316 44.3673L8.13038 44.3695C8.78035 44.9435 8.43379 44.8921 9.21681 45.5632C8.33807 44.655 9.46985 45.613 8.76329 44.8979C9.02617 45.0893 8.86584 44.8054 9.5738 45.522C10.0464 46.2344 10.404 46.1937 10.8585 46.8595C11.2725 47.1946 10.5278 46.3848 11.2835 47.1027C12.0675 48.0085 11.9724 48.0057 11.9357 48.1464C11.1175 47.3838 11.1605 47.1467 10.4901 46.5242L11.6276 47.9565C11.3682 47.742 11.19 47.5695 11.0485 47.4169C11.299 47.683 11.4966 47.9241 11.6539 48.1422L11.9066 48.4829C11.1745 47.7577 10.523 47.1151 10.3703 47.0388L10.4278 47.1818C10.1292 46.9643 9.73835 46.5144 9.5754 46.2899C8.92543 45.6351 8.33165 44.9261 8.13259 44.8397L8.34169 45.1257C7.54844 44.3142 7.46396 44.2197 6.45198 43.2137ZM21.5844 16.4036C21.2552 17.0451 20.8574 17.718 18.5533 19.9504L18.7434 19.7835C17.6957 21.0212 16.3751 21.8734 15.09 23.3687C15.8271 22.7555 15.7851 22.7864 16.6695 22.1796L15.8979 22.8565C16.1856 22.7422 15.4161 23.4173 14.8869 23.9508L15.46 23.5854C15.7506 23.2384 16.5695 22.4043 16.5685 22.4517C16.3755 22.6208 17.5343 21.2357 18.258 20.5767C18.2558 20.7168 16.7632 22.1427 17.5307 21.6063C16.9067 22.1314 16.9044 22.271 16.2776 22.8451C16.903 22.3186 16.5153 22.7971 16.9962 22.4204L15.9844 23.3778C15.9818 23.4264 17.4749 22.0003 16.7507 22.889C16.3185 23.2458 15.3071 24.3404 15.2132 24.285L15.212 24.3321C14.4876 25.0833 14.7804 24.5504 13.9135 25.4955C13.8651 25.4688 14.0126 25.2707 14.3461 24.955C14.6381 24.6982 14.7318 24.7074 15.3093 24.1548C15.5052 23.844 14.6327 24.841 14.9273 24.3518C15.0735 24.1087 16.4672 22.9077 15.9412 23.2091L15.218 23.9589C15.1241 23.9034 14.5931 24.439 14.5476 24.3641C14.068 24.7855 13.7258 25.2927 13.1989 25.6863C12.9589 25.8285 13.2033 25.407 12.4789 26.2043C11.9929 26.9067 10.2127 28.6312 9.53808 29.2693L8.9138 29.7942C8.91681 29.6998 10.0215 28.7071 9.59165 29.0151L8.6746 29.8899L8.77273 29.8496C8.48115 30.1518 8.14563 30.4234 7.85727 30.6767C8.19139 30.4524 8.81747 29.7877 8.7669 29.9929C8.36035 30.4271 8.32483 30.5198 7.92169 30.8903C8.01199 30.8116 8.09246 30.7469 8.09286 30.7684C7.27232 31.6501 7.18061 31.5009 6.94102 31.6881C5.98061 32.44 7.71259 30.7353 7.52235 30.7644L4.97165 33.2113C5.21125 33.0239 5.45205 32.8346 5.40329 32.9468C4.82416 33.5932 5.44984 33.0207 4.58255 33.8743C4.5372 33.7073 3.4287 34.8879 2.75686 35.4321C2.51566 35.7586 2.46569 35.8256 3.09037 35.208C3.09138 35.3445 2.21746 36.159 1.94074 36.4463C1.90442 36.4756 1.86882 36.5057 1.83398 36.5367C1.75231 36.6093 1.64435 36.6921 1.55225 36.7911C1.50609 36.8405 1.45693 36.8884 1.42723 36.9455C1.39332 36.9999 1.35639 37.0503 1.34014 37.1025C1.37104 36.9376 1.38428 36.8882 1.31164 36.9597C1.29599 36.9786 1.2703 37.0033 1.25104 37.0408C1.23298 37.0786 1.21231 37.1258 1.18883 37.1826C1.16455 37.2392 1.16034 37.3101 1.14428 37.389C1.13748 37.4787 1.14098 37.5689 1.15472 37.6579L1.1475 37.7057C1.0873 37.4985 1.07806 37.2499 1.16255 37.0141C1.24161 36.7732 1.43144 36.5862 1.61084 36.3877L2.15746 35.814L2.66054 35.2986C2.98241 34.9759 3.27017 34.7046 3.48128 34.5424L3.28984 34.6642C4.25526 33.587 5.6453 32.5728 5.98724 31.9736C5.89172 31.9654 6.18128 31.7573 6.08857 31.7009L6.90189 31.0094L6.71085 31.1315L8.01179 29.8735L7.96383 29.8934L9.60249 28.6008C9.63661 28.6316 9.60691 28.681 9.83447 28.5032C10.0139 28.3531 10.1846 28.1931 10.3458 28.0238C10.347 28.023 10.347 28.0231 10.3474 28.0233L10.347 28.0229C10.6524 27.7005 10.8155 27.4457 11.1844 27.0415L9.98236 28.2189C9.82965 28.2603 9.8736 28.1025 10.42 27.4832C10.1786 27.7187 10.0353 27.7752 10.3251 27.4748C10.3721 27.4569 11.1428 26.7332 10.9014 27.0609C12.0559 25.9548 13.7467 23.9874 15.5742 22.3824C14.2737 23.548 16.4915 21.3242 15.0952 22.6653C15.9653 21.6254 16.0075 21.933 16.9711 20.9491C17.0224 20.8347 16.4431 21.4813 16.1558 21.6421C17.7453 19.9938 19.0406 19.0625 20.5857 17.4752L20.5837 17.3397C20.8905 17.0531 21.2307 16.7345 21.5844 16.4036ZM24.7803 13.4021L25.7255 12.5113L25.6372 12.6031L26.6018 11.7561C26.0704 12.3373 25.7782 12.778 26.5954 12.0371C26.501 12.0742 26.6945 11.8124 26.4061 12.0658C26.8883 11.5044 27.9976 10.3237 27.8024 10.7249C26.6969 11.6262 27.7008 11.0899 26.8366 11.8023C27.329 11.4487 27.7189 11.0006 28.1502 10.6329C27.676 10.9907 28.1184 10.4082 28.718 9.75895C29.0076 9.50476 29.7302 8.75572 30.211 8.333C30.1133 8.55691 30.5447 8.20132 29.8221 8.95075C30.2326 8.59093 30.6193 8.20518 30.9798 7.79592C30.7825 7.97003 30.4488 8.28558 30.4482 8.24017C30.6928 7.88078 31.0504 7.53078 31.2214 7.31144L31.699 6.85764C31.6589 6.90884 31.6265 6.95525 31.6073 6.9925L32.183 6.53292C31.4612 7.18972 31.8928 6.87955 31.939 6.90784C31.8457 6.85206 32.3746 6.45622 32.6136 6.22375L32.1784 6.81261C32.4667 6.60524 32.9989 5.88469 32.9473 6.09127C31.8878 7.20546 31.4548 7.60847 30.4446 8.56468L30.7835 8.10609C29.6269 9.16809 30.2024 8.89218 28.9502 10.1291C28.3751 10.5891 27.0679 11.9901 26.9299 11.9041C27.1207 11.7827 26.252 12.7754 25.773 13.1499C25.1973 13.5177 23.7529 14.9241 24.1392 14.4476C24.5247 14.0625 25.1012 13.6021 25.3452 13.2272L24.574 13.9504L25.0101 13.4065C24.7757 13.6786 24.7458 13.5999 24.7803 13.4021ZM36.1563 6.64468L36.1288 6.67476L36.1605 6.64249L36.1563 6.64468Z" fill="#F16A50"/>
<path d="M27.6489 64.1132C27.8397 64.353 28.3791 64.879 28.2189 64.8299C28.2929 64.7824 27.272 63.8734 27.6489 64.1132ZM28.3483 64.6884C28.3714 64.7401 28.3221 64.7371 28.5602 64.9771L27.9144 64.3069L28.3483 64.6884ZM29.434 64.942C29.7299 65.3247 29.9202 65.5639 30.4596 66.09C30.8087 66.1425 29.6247 65.1812 29.5204 64.8041C30.515 65.762 30.687 66.1884 31.4813 67C31.0196 66.665 29.351 65.0827 29.434 64.942ZM29.1852 64.3251L29.6974 64.8985L29.635 64.8538L29.1224 64.28L29.1852 64.3251ZM16.0829 53.8951C15.9872 53.8923 15.6929 53.5104 15.5219 53.3187C15.6732 53.4625 15.8927 53.656 16.0829 53.8951ZM22.814 54.4485L26.9308 58.6148L22.814 54.4485ZM2.57568 39.9168C3.6495 41.0668 4.06605 41.6376 5.18438 42.7854C3.5939 41.3948 3.35239 40.6826 2 39.5322L2.57568 39.9168ZM2.60066 40.6728C2.87299 40.7699 1.84047 39.7177 2.06667 39.8151C2.79846 40.582 2.33437 40.2446 3.02527 40.9142L2.60066 40.6728ZM9.10479 44.2615L8.81131 43.881L9.06752 44.1677L9.10479 44.2615ZM2.50397 33.6698L2.36076 33.7728L2.89353 33.1904L2.50397 33.6698ZM2.21734 33.8751L2.36076 33.7728L2.21734 33.8751ZM8.85643 43.6452L9.37873 44.1256L9.58761 44.4119L8.85643 43.6452ZM3.94399 39.7055L4.36658 40.1794C4.28259 40.0856 3.63056 39.5106 3.94399 39.7055ZM5.88878 30.2439L6.4703 29.7342L6.42297 29.798L5.84326 30.3062L5.88878 30.2439ZM2.21432 36.5773C2.18592 36.6502 2.23668 36.6186 2.30053 36.5648L2.39883 36.477L2.53137 36.3543C2.56904 36.3212 2.58737 36.3086 2.57226 36.3333C2.55698 36.3564 2.54044 36.3787 2.52271 36.4C2.50136 36.4285 2.44697 36.4905 2.43649 36.5105L2.34263 36.5933C2.16315 36.7429 2.20868 36.6382 2.21432 36.5773ZM8.23622 29.7128C8.31015 29.6396 8.39032 29.5648 8.4729 29.4977L8.23622 29.7128ZM8.23622 29.7128C7.99753 29.9492 7.78442 30.211 7.60132 30.3541C7.86862 30.0291 7.98847 29.9331 8.23622 29.7128ZM10.9867 27.0194L10.775 27.2386C11.0292 27.0521 10.9195 27.1512 10.6955 27.3204C10.4638 27.5453 10.4556 27.5116 10.4137 27.5241L10.2467 27.6381L10.459 27.4759C10.8137 27.1233 11.0339 26.9116 10.9867 27.0194ZM20.017 15.8381C19.2427 16.6548 19.0479 16.8714 19.1434 16.88C18.4011 17.6481 18.4293 17.4426 17.9509 17.8754C18.8195 17.035 18.971 16.8373 20.017 15.8381ZM17.9509 17.8754L17.647 18.1681C17.7454 18.0676 17.8468 17.97 17.9509 17.8754ZM8.35869 30.7485L8.93518 30.3353L8.74181 30.5049L8.35869 30.7485ZM21.177 14.6373C21.032 14.7875 20.7923 15.0205 20.6934 15.1538C20.5985 15.1444 21.3218 14.4876 21.177 14.6373ZM19.1138 18.701C19.0644 18.8129 18.5339 19.3005 18.3379 19.519C18.6299 19.2165 18.7774 18.8805 19.1138 18.701ZM23.685 12.5783C23.5402 12.7285 23.3472 12.9889 23.4888 12.9336C23.2481 13.1217 22.8648 13.3195 23.685 12.5783ZM20.5653 17.2445L20.469 17.3752L19.8885 17.884L20.5653 17.2445ZM19.3821 19.938C18.7049 20.4858 20.2083 18.8229 19.096 19.8205C20.3981 18.4023 19.0791 20.0114 20.0774 19.0025C19.5078 19.6084 19.2971 19.9727 19.3821 19.938ZM20.0776 19.0026C20.16 18.9147 20.2512 18.8207 20.3517 18.7205L20.0776 19.0026ZM28.3436 10.037C28.2696 10.1007 28.1936 10.162 28.1158 10.221C28.1913 10.1565 28.2649 10.0963 28.3436 10.037ZM23.3488 15.8639L22.3336 16.6849C23.0114 16.1362 24.5574 14.5976 24.5535 14.7853C24.0707 15.3008 23.4423 15.8746 23.1542 16.0805L23.3488 15.8639ZM32.2511 3.71361L31.816 4.07193L32.3027 3.56855C32.1742 3.72338 32.4999 3.53544 32.2511 3.71361ZM32.397 3.4712L32.3027 3.56836C32.3216 3.54502 32.3512 3.51409 32.397 3.4712ZM26.5545 11.7201C26.2633 12.0218 26.0224 12.2554 25.7341 12.508C25.8292 12.3791 26.5551 11.6276 26.5545 11.7201ZM35.1918 1.06824L34.5182 1.70409L35.2425 1L35.1918 1.06824ZM39 4.03343L38.9039 4.16311L38.3254 4.67028L38.4233 4.5388L39 4.03343ZM35.9147 3.65595C35.4788 4.10745 35.0472 4.36981 35.1465 4.23673L36.0146 3.38441C35.8678 3.6741 35.7727 3.61983 35.2899 4.13438L35.9147 3.65595ZM16.0879 26.4581C16.3296 26.3151 17.2469 25.3506 17.2503 25.2559C17.1033 25.3618 16.5713 25.8504 16.8638 25.5023L17.7316 24.8798C18.6519 23.8203 16.8181 25.4733 16.2843 25.918C17.2826 24.8989 17.6617 24.6791 18.7393 23.6106C18.5163 23.8457 18.3089 24.0949 18.1185 24.3566C18.166 24.4763 19.1335 23.4443 19.8584 22.7396C19.4377 23.2286 19.7332 22.9971 20.0992 22.7001C20.1618 22.6432 20.2063 22.6085 20.2404 22.5861L20.3652 22.4858L20.2788 22.571C20.2945 22.5744 20.2869 22.6045 20.2404 22.6815C19.6133 23.2541 19.2227 23.7804 18.8358 24.1657C19.0823 23.6504 17.4828 25.443 16.9528 25.8845L16.3762 26.429L16.1651 26.6375C16.1377 26.6944 16.2166 26.6537 16.5649 26.3622C16.2696 26.601 15.3851 27.4962 15.4236 27.3707L13.3811 29.39C13.327 29.4522 13.2763 29.5172 13.2292 29.5847C13.1499 29.6464 13.1311 29.651 13.1334 29.6348C10.6332 32.1058 8.13309 34.5766 5.6386 37.0474L5.66801 37.0829C5.65049 37.0715 5.62974 37.06 5.60637 37.0474C5.61242 37.0137 5.62027 36.9676 5.65713 36.9095C5.54413 36.9313 5.56347 36.9041 5.61101 36.8503L5.62793 36.8307C5.63599 36.8217 5.62914 36.8273 5.67023 36.7852C5.73025 36.7228 5.78645 36.6633 5.83036 36.6132C5.91839 36.5131 5.95827 36.451 5.88717 36.479C5.80317 36.5468 5.71273 36.6258 5.62068 36.7108C5.55964 36.7681 5.56589 36.7599 5.54977 36.7747L5.51412 36.8092C5.4684 36.8567 5.43355 36.9063 5.41884 36.9416C5.37151 36.9458 5.35439 36.9219 5.34432 36.8892C5.33344 36.8575 5.32982 36.8164 5.2859 36.8084C5.32373 36.7583 5.36527 36.7111 5.41018 36.6671C5.42146 36.6567 5.57334 36.5133 5.66399 36.4347C5.86622 36.2567 6.0469 36.1171 6.22758 35.979C6.58874 35.7027 6.9497 35.4325 7.48208 34.8739C7.3866 34.8653 7.00228 35.156 7.72681 34.4523L7.53324 34.6219C8.7404 33.5415 8.31075 33.6187 9.1767 33.0435L9.08263 32.9881C9.66053 32.5278 10.6749 31.5238 11.2566 30.9682L11.2081 30.9875C12.8971 29.485 12.1262 30.1142 13.9622 28.3669L13.0461 29.1007C13.6309 28.4499 13.8662 28.4056 14.302 27.9543C14.2557 27.9716 14.3043 27.8148 13.8696 28.2183L16.1874 26.187C16.7655 25.7263 16.1371 26.346 16.0879 26.4581ZM18.7393 23.6106C18.8688 23.4735 19.0019 23.3397 19.1385 23.2096L18.7393 23.6106Z" fill="#F16A50"/>
<path d="M6.0638 38L6 37.9352C6.02662 37.9508 6.04863 37.9732 6.0638 38ZM22.5621 21.2681C22.218 21.6879 22.904 21.0373 23 21L21.6259 22.3633C21.6028 22.3281 21.4343 22.4306 21.4349 22.3765L22.5621 21.2681Z" fill="#F16A50"/>
<path d="M20.6665 21.7014C20.6018 21.7274 20.4436 21.8539 20.2692 21.9989L20.9975 21.2504C21.0142 21.277 20.9521 21.381 20.6665 21.7014ZM19.295 20L19.0573 20.2396L18.6797 20.5832L19.295 20ZM15.7418 23.9144C15.9795 23.581 16.545 23.066 16.7342 22.8938C16.1187 23.5247 16.4012 23.2677 15.7418 23.9144ZM16.0402 22.6595L15.424 23.2437L15.4707 23.1781L16.0402 22.6595ZM10 41.6972L10.2844 42C10.1875 41.9013 10.0926 41.8003 10 41.6972Z" fill="#F16A50"/>
<path d="M5 38.14C5.20577 38.2812 5.21135 38.2519 5.19102 38.2016C5.16749 38.1481 5.10687 38.0621 5.11286 38.0236C5.17008 37.9969 5.21235 37.9929 5.24664 38.0114C5.24042 38.0149 5.23455 38.019 5.2291 38.0236C5.24395 38.0641 5.26195 38.1034 5.28293 38.1412L5.31324 38.1146L5.37844 38.1882L5.79776 38.611C5.5543 38.4676 5.40536 38.3266 5.39599 38.4193C6.68065 39.6466 5.85578 38.7522 6.84854 39.6031L8.25263 41.0064L8.15374 40.8784C8.27157 40.997 8.31783 41.055 8.35013 41.1037L13.0814 45.8334C13.9073 46.7283 12.5096 45.4521 13.0729 46.1573C12.0685 45.1663 10.5213 43.7483 10.5386 43.5628C10.5582 43.61 10.5962 43.7036 10.3805 43.5147L9.88423 42.8584L10.4651 43.3782C9.96519 42.7188 8.06002 40.877 7.66663 40.5922C8.71063 41.6785 8.07079 41.2477 9.62044 42.6673C9.52733 42.6268 9.20791 42.4022 9.52992 42.7481C8.66936 41.8699 7.83511 41.0554 7.00007 40.2259C6.57793 39.8075 6.15913 39.3858 5.74372 38.9608L5.42729 38.634L5.26838 38.4686L5.19162 38.388L5.16809 38.3595C5.10608 38.2838 5.04865 38.2096 5 38.14ZM21.9814 54.9859L21.977 54.9631C22.0035 54.999 22.0099 55.0128 21.9814 54.9859ZM21.3808 54.4187L20.6283 53.4776L21.9509 54.7979L21.977 54.9629C21.8773 54.8291 21.4464 54.3338 21.238 54.1826L21.3808 54.4187ZM19.6982 52.4402C20.3553 53.1476 20.2349 53.1928 19.8222 52.8605C20.4146 53.5208 20.2445 53.1006 20.591 53.6158C20.5169 53.6608 19.7741 52.8591 19.6064 52.6719L19.6982 52.4402ZM14.584 47.4827L14.7427 47.7072L14.2576 47.2469L14.584 47.4827ZM14.7427 47.7072L15.2247 48.1641C15.1664 48.1572 15.109 48.1499 15.0145 48.0911L14.7427 47.7072ZM16.4888 49.3636C16.726 49.5837 16.9606 49.8065 17.1926 50.0319L16.4888 49.3636ZM15.9271 48.8516L15.954 48.8567L16.489 49.3636C16.2878 49.1806 16.1078 49.0162 15.9271 48.8516Z" fill="#F16A50"/>
<path d="M15.0992 47.7363C15.2334 47.7548 15.3836 47.7834 16.0467 48.4802L15.8241 48.4357L15.0992 47.7363ZM11.2686 28.0655L10.6984 28.5711L10.7462 28.5051L11.3161 28L11.2686 28.0655ZM8.22114 31.2251C8.10435 31.3256 7.98538 31.4236 7.86433 31.5189C8.01062 31.385 8.13154 31.2833 8.22114 31.2251ZM5.52103 33.1379C4.94735 33.8296 6.46997 32.3414 5.32558 33.5401C5.27661 33.6977 5.8951 33.2182 6.41922 32.639C6.32427 32.6316 5.8495 33.1443 6.13634 32.7526C6.56135 32.4449 6.66027 32.2652 6.60972 32.4699C7.2734 31.9013 7.3967 31.8872 7.86472 31.5187C7.08647 32.2306 5.6027 33.8756 4.55941 34.7232C3.94608 35.1522 4.13579 34.7095 4 34.5776C4.04678 34.4675 5.38167 33.1002 5.52103 33.1379ZM6.38215 32.0077C6.668 31.7082 6.76275 31.6238 6.95326 31.4553C6.95048 31.5495 6.62042 31.7729 6.38215 32.0077ZM5.44808 40.0276C5.48495 40.1024 5.99044 40.6564 5.84395 40.5754L5.06569 39.7475C5.25699 39.933 5.34659 39.9763 5.44808 40.0276ZM4.72394 39.3846L5.06549 39.7475C4.97589 39.6611 4.86964 39.5495 4.72394 39.3846ZM5.49784 40.054L5.44808 40.0276C5.44075 40.0123 5.44689 40.0103 5.49784 40.054ZM18.3359 50.8651C18.3613 50.8171 18.6967 51.1972 18.8654 51.3879C18.7165 51.2447 18.4996 51.0516 18.3359 50.8651ZM31.6493 64.4944L31.9943 64.7816C31.8652 64.6871 31.7994 64.6384 31.6493 64.4944ZM35.5148 70.3746C35.517 70.3911 35.5343 70.4203 35.5602 70.4575C35.5333 70.4215 35.5174 70.3935 35.5148 70.3746ZM35.5602 70.4576C35.7456 70.7043 36.4592 71.3245 36.6523 71.6109L36.636 71.5662L36.8454 71.8034L36.9221 71.8904C36.9338 71.9039 36.9481 71.9188 36.9558 71.9293C36.9603 71.9374 36.9649 71.9454 36.9697 71.9533L37 72C36.9778 71.9569 36.8105 71.7936 36.6741 71.655L36.2261 71.1979C35.929 70.8911 35.659 70.6011 35.5602 70.4576Z" fill="#F16A50"/>
</svg>
